<svg width="274" height="588" viewBox="0 0 274 588" fill="none" xmlns="http://www.w3.org/2000/svg">
<path d="M5.00086 151.912C5.3406 150.415 5.74128 149.518 6.75178 148.621C6.76921 148.613 6.76919 148.604 6.7779 148.595C6.80403 148.578 6.82146 148.569 6.86501 148.543C6.98697 148.465 7.10894 148.395 7.2309 148.325C7.3093 148.282 7.38772 148.247 7.46612 148.203C7.50968 148.203 7.8494 148.082 7.88424 148.073C8.56372 147.881 8.86863 147.864 9.81815 147.951C11.2642 148.09 13.0064 148.83 14.4263 149.718C17.4404 151.608 19.8012 154.603 21.6741 157.659C23.8693 161.228 25.3416 164.702 26.5698 168.594C26.9967 169.97 27.38 171.363 27.7284 172.756C27.7458 173.975 27.7633 175.194 27.7894 176.413C27.5368 176.378 27.2842 176.343 27.0403 176.308C25.0977 176.047 22.9024 175.368 21.0382 174.506C17.1007 172.695 13.4508 170.092 10.4454 166.975C7.76232 164.197 5.68901 160.872 4.96598 157.023C4.65238 155.317 4.68725 153.358 5.00086 151.912ZM24.2614 184.649C22.1271 185.929 19.9406 187.139 17.7193 188.262C14.6355 189.812 11.421 191.336 8.02359 192.05C8.0323 192.05 7.84069 192.076 7.71002 192.102C7.59677 192.119 7.42257 192.137 7.42257 192.137C7.12638 192.154 6.83886 192.172 6.54268 192.163C6.42072 192.163 6.30748 192.154 6.19423 192.146C6.17681 192.137 6.17682 192.137 6.16811 192.137C6.08971 192.102 5.92425 192.058 5.82843 192.041C5.31446 191.971 6.22909 192.085 5.77611 192.024C5.74997 192.015 5.73257 192.006 5.70643 191.989C5.6803 191.98 5.65413 191.963 5.628 191.945C5.63671 191.936 5.628 191.928 5.628 191.928C5.61058 191.91 5.59322 191.893 5.56709 191.867C5.58451 191.884 5.61063 191.902 5.63676 191.928C5.63676 191.876 5.61931 191.832 5.55833 191.806C5.54962 191.789 5.54092 191.771 5.53221 191.754C5.47994 191.588 5.43639 191.431 5.40154 191.266C5.40154 191.24 5.40154 191.214 5.40154 191.179C5.38412 190.961 5.38415 190.744 5.39286 190.517C5.39286 190.387 5.40151 190.256 5.41022 190.117C5.46249 189.829 5.54094 189.542 5.63676 189.264C5.64547 189.246 5.65417 189.229 5.66288 189.211C5.7587 189.02 5.87191 188.846 5.97645 188.663C6.02001 188.585 6.08105 188.506 6.13332 188.428C6.16816 188.393 6.22909 188.315 6.25523 188.288C6.53399 187.984 6.83886 187.696 7.15247 187.426C7.23087 187.383 7.57938 187.122 7.65779 187.061C7.98881 186.843 8.33724 186.643 8.68569 186.451C9.53939 185.981 9.83559 185.859 10.576 185.572C13.4508 184.484 16.5432 183.822 19.5834 183.421C22.0487 183.082 24.5576 182.943 27.0403 182.995C26.1082 183.561 25.1412 184.127 24.2614 184.649ZM36.6313 151.843C37.0843 151.155 37.2933 150.876 37.8596 150.276C38.0338 150.102 38.2167 149.927 38.3997 149.753C38.4171 149.736 38.5217 149.649 38.5652 149.614C38.6959 149.518 38.8265 149.431 38.9659 149.353C39.053 149.301 39.4799 149.118 39.4363 149.126C39.4973 149.109 39.5583 149.091 39.6106 149.074C39.6803 149.057 39.7673 149.048 39.8196 149.048C39.8806 149.048 39.898 149.048 39.9155 149.048C39.9242 149.048 39.9329 149.048 39.9416 149.057C40.0548 149.083 40.1158 149.1 40.1507 149.109C40.8215 149.422 41.3702 150.023 41.7099 150.615C42.0584 151.251 42.311 151.921 42.433 152.783C42.5114 153.366 42.4853 154.655 42.3807 155.491C42.1717 157.171 41.5619 159.139 40.9347 160.854C39.3667 165.12 37.154 169.491 34.9849 173.827C34.497 174.802 34.0093 175.777 33.5301 176.761C33.4605 176.517 33.3994 176.273 33.3472 176.038C33.0597 174.741 32.7809 173.461 32.476 172.173C32.3802 165.077 32.7635 157.711 36.6313 151.843ZM82.5656 197.97C80.3791 183.552 79.177 168.49 80.9715 153.967C81.2241 151.913 81.5725 149.858 81.982 147.82C84.8218 151.103 88.9946 153.009 93.1847 153.95C96.8695 154.777 102.628 155.796 104.248 151.207C106.042 146.114 100.798 141.909 96.7649 140.071C94.3694 138.974 91.9825 138.339 89.3343 138.226C89.4824 138.06 89.6218 137.886 89.7612 137.712C91.5905 135.527 93.385 133.28 94.7352 130.755C96.7301 127.038 98.7947 122.51 98.5682 118.166C102.462 122.476 106.687 126.498 110.285 131.078C115.782 138.06 119.972 145.87 124.615 153.419C127.272 157.737 129.728 162.143 131.941 166.661C131.436 170.388 130.93 174.114 130.39 177.841C129.04 187.113 126.845 196.194 125.172 205.405C121.74 224.264 120.146 243.488 118.256 262.547C117.323 271.993 117.315 281.544 117.541 291.026C117.654 295.788 118.151 300.525 118.334 305.278C118.421 307.664 118.386 310.05 118.195 312.427C118.046 314.316 117.698 316.205 117.689 318.095C117.689 318.26 117.698 318.417 117.707 318.573C116.827 314.211 115.825 309.875 114.623 305.592C112.593 298.392 109.841 291.426 107.358 284.374C102.331 270.095 97.5228 255.712 92.9756 241.268C88.5154 227.102 84.7957 212.667 82.5656 197.97ZM99.7529 149.649C99.718 149.675 99.692 149.71 99.7181 149.745C99.7094 149.753 99.7006 149.753 99.7006 149.762C99.6919 149.762 99.6832 149.762 99.6745 149.762C99.5787 149.797 99.178 149.884 99.0647 149.91C99.0125 149.919 98.9515 149.919 98.9427 149.919C98.7947 149.927 98.6466 149.936 98.4897 149.936C98.1849 149.936 97.88 149.919 97.5838 149.893C97.427 149.884 97.279 149.866 97.1222 149.849C97.0873 149.849 97.0698 149.84 97.0524 149.84C97.035 149.84 97.0176 149.84 96.9827 149.832C94.2387 149.405 91.4772 148.743 89.0729 147.446C87.4091 146.549 86.0676 145.452 85.1007 144.042C85.2487 143.815 85.362 143.554 85.4317 143.284C85.7278 143.215 86.0153 143.162 86.3115 143.11C88.0886 142.849 90.0051 142.866 91.7473 143.284C92.2961 143.415 92.8362 143.58 93.3589 143.772C94.108 144.042 94.169 144.068 94.831 144.39C95.4234 144.677 95.9984 144.991 96.5559 145.339C97.2093 145.739 97.6448 146.053 98.0716 146.436C98.2894 146.636 98.5072 146.837 98.7075 147.054C98.9427 147.307 99.1083 147.507 99.1083 147.516C99.5961 148.203 99.6223 148.238 99.7791 148.909C99.7791 148.917 99.7877 148.961 99.7964 149.005C99.7964 149.092 99.8052 149.248 99.8052 149.283C99.8052 149.318 99.8051 149.562 99.7964 149.623C99.7964 149.614 99.7964 149.596 99.7964 149.562C99.7877 149.431 99.6396 149.675 99.7529 149.649ZM82.7486 124.966C83.3584 122.327 84.3863 119.951 86.1198 118.061C87.078 117.017 87.9666 116.207 89.2646 115.632C90.1531 115.249 91.1985 115.084 92.1393 115.388C92.148 115.414 92.5313 115.597 92.6881 115.684C92.6968 115.711 93.0714 116.041 93.054 116.015C93.5331 116.581 93.5854 116.86 93.7334 117.548C93.8031 117.879 93.777 117.652 93.7944 118.087C93.8032 118.462 93.8118 118.828 93.7857 119.193C93.7421 119.942 93.6289 120.508 93.4372 121.318C91.8344 127.839 87.592 133.028 83.28 138.086C83.2016 138.174 83.1319 138.261 83.0535 138.348C82.6789 136.667 82.4088 135.004 82.2869 133.359C82.0517 130.459 82.1388 127.621 82.7486 124.966ZM134.084 182.49C134.546 179.756 134.964 177.022 135.373 174.28C135.756 175.229 136.14 176.186 136.506 177.153C139.729 185.65 141.994 194.444 144.616 203.142C145.922 207.469 147.447 211.718 148.214 216.193C148.919 220.302 149.093 224.482 148.675 228.626C147.987 235.374 145.766 241.921 143.091 248.172C140.765 251.881 138.527 255.66 136.706 259.63C135.094 263.139 133.831 266.787 132.525 270.417C131.81 271.958 131.113 273.499 130.451 275.058C127.368 282.267 124.589 289.65 122.211 297.129C122.176 296.485 122.141 295.849 122.115 295.214C121.705 285.819 121.67 276.268 122.341 266.891C123.021 257.358 124.144 247.841 125.05 238.325C125.956 228.791 127.097 219.266 128.674 209.811C130.19 200.643 132.551 191.649 134.084 182.49ZM74.8823 136.328C73.201 135.117 71.6156 133.846 70.065 132.488C68.9935 131.548 67.922 130.616 66.929 129.615C66.3453 129.032 65.7616 128.422 65.2564 127.769C65.2477 127.743 64.9603 127.334 64.8906 127.229C64.7686 127.046 64.6641 126.855 64.5421 126.663C64.516 126.611 64.4115 126.393 64.3679 126.315C64.3244 126.158 64.2721 125.941 64.2372 125.845C64.246 125.828 64.2547 125.819 64.2634 125.81C64.2721 125.802 64.2808 125.793 64.2895 125.784C64.3243 125.775 64.3505 125.767 64.3766 125.767C64.4463 125.767 64.7164 125.767 64.8906 125.767C64.8557 125.784 65.4829 125.915 65.6136 125.949C66.023 126.08 66.1362 126.132 66.3192 126.211C66.6676 126.376 67.0074 126.55 67.3471 126.742C68.0091 127.107 68.6538 127.525 69.281 127.961C69.5075 128.117 69.734 128.292 69.9692 128.457C69.9954 128.474 70.2044 128.64 70.2654 128.683C70.3612 128.753 70.4483 128.831 70.5441 128.901C71.7289 129.867 72.8787 130.921 73.7673 132.166C74.8997 133.742 75.6315 135.44 76.1106 137.224C75.7012 136.928 75.2917 136.624 74.8823 136.328ZM80.7624 82.4429C80.6753 83.6705 80.5621 84.6108 80.353 85.7165C79.6561 84.8807 78.7152 84.219 77.757 83.4528C76.0409 82.0772 74.6385 80.3359 73.2969 78.612C70.7532 75.3383 67.8959 72.1603 65.9621 68.46C64.3069 65.2995 63.6797 61.4512 65.0648 58.0557C65.0997 57.986 65.1867 57.7946 65.2042 57.7598C65.3 57.5857 65.3871 57.4115 65.4916 57.2461C65.5526 57.159 65.6136 57.0719 65.6746 56.9849C65.7094 56.9413 65.7791 56.863 65.8053 56.8456C65.9185 56.7237 66.0404 56.6017 66.1711 56.4885C66.2059 56.4798 66.2321 56.4624 66.2844 56.4363C66.3541 56.3928 66.4237 56.358 66.4847 56.3232C66.5457 56.3058 66.7983 56.2187 66.8506 56.21C66.9203 56.1925 66.9726 56.1838 67.0074 56.1838C67.1381 56.1751 67.2687 56.1751 67.4081 56.1664C67.4604 56.1664 67.6433 56.1751 67.7217 56.1838C67.8437 56.2012 67.9743 56.2273 68.0963 56.2622C68.95 56.4624 69.6294 56.7932 70.396 57.2286C73.0442 58.7435 75.1698 60.9115 76.7552 63.4799C78.5062 66.3183 79.5254 69.2263 80.2049 72.5783C80.8321 75.6691 81.015 79.0734 80.7624 82.4429ZM75.1785 92.2725C73.053 93.3085 70.8926 94.2664 68.6887 95.1196C66.8332 95.8422 64.9428 96.5213 63.035 97.0872C61.5803 97.5226 60.2126 97.8446 59.0017 97.8882C58.662 97.9056 58.3136 97.897 57.9652 97.8708C57.9216 97.8621 57.9041 97.8622 57.8867 97.8622C57.8519 97.8535 57.8345 97.8534 57.7909 97.8446C57.6428 97.8098 57.5034 97.7838 57.364 97.7402C57.2682 97.7141 57.1724 97.6793 57.0678 97.6445C57.0243 97.6271 56.9459 97.5922 56.911 97.5748C56.9285 97.5835 56.7456 97.4616 56.641 97.392C56.5626 97.3136 56.3971 97.1568 56.3709 97.1481C56.1532 96.8695 55.9267 96.2427 55.8831 95.9467C55.9093 95.9554 55.9354 95.4678 55.9093 95.433C55.9789 95.224 56.0748 94.9541 56.0574 94.9541C56.1706 94.78 56.3535 94.5014 56.3448 94.484C56.4929 94.3185 56.6497 94.1445 56.8153 93.9877C56.9459 93.8746 57.0766 93.7613 57.2073 93.6568C57.216 93.6394 57.2247 93.6395 57.2334 93.6308C57.2595 93.6134 57.2857 93.5959 57.3379 93.5611C57.6428 93.3608 57.9477 93.1606 58.2701 92.9865C59.5506 92.2638 60.3781 91.9678 61.92 91.515C65.4219 90.479 69.0806 89.9827 72.7219 90.4789C74.1941 90.6792 75.6925 91.0187 77.1908 91.2712C76.52 91.6108 75.8493 91.9503 75.1785 92.2725ZM95.4321 67.0323C95.737 66.7363 96.0506 66.4401 96.3729 66.1528C96.3642 66.1615 96.5037 66.0396 96.5995 65.97C96.6953 65.8916 96.8956 65.7436 96.8782 65.7523C97.4705 65.3431 98.1065 64.96 98.7685 64.6553C98.7859 64.664 99.3087 64.4638 99.4306 64.429C99.5613 64.3854 100.171 64.2984 100.084 64.2897C100.206 64.281 100.328 64.2809 100.459 64.2809C100.467 64.2809 100.467 64.2809 100.476 64.2809C100.493 64.2896 100.502 64.2897 100.52 64.2984C100.546 64.3071 100.598 64.3158 100.641 64.3332C100.659 64.3419 100.685 64.3594 100.711 64.3768C100.781 64.4377 100.903 64.5857 100.946 64.6902C101.086 64.9862 101.199 65.5172 101.225 65.7088C101.312 66.4227 101.19 67.1105 100.964 67.8854C100.45 69.6441 99.3784 71.2723 98.2546 72.7089C95.798 75.852 92.7665 78.5162 89.5695 80.8844C88.6722 81.5548 87.7749 82.2165 86.8777 82.8782C88.6374 77.0448 91.1375 71.3072 95.4321 67.0323ZM126.409 31.1873C126.113 32.6413 125.704 34.0691 125.312 35.5057C123.657 33.7034 122.097 31.8228 120.773 29.7594C118.735 26.5989 117.123 22.9074 116.278 19.2419C115.494 15.8377 116.304 12.6423 118.735 10.1174C119.676 9.14227 120.137 8.76799 121.217 9.4384C122.132 10.013 123.055 11.11 123.718 12.1896C125.303 14.7407 126.157 17.6834 126.679 20.6959C126.819 21.4882 126.845 21.61 126.915 22.4023C127.002 23.2904 127.037 24.1872 127.028 25.084C127.019 27.1388 126.827 29.1761 126.409 31.1873ZM111.138 42.8627C108.029 43.568 104.213 44.3168 101.182 42.9238C100.206 42.4797 98.7163 41.5046 99.1605 40.4773C99.3173 40.1116 99.7007 39.8068 99.9969 39.624C100.136 39.5456 100.52 39.3366 100.633 39.2757C100.702 39.2496 100.929 39.1712 100.955 39.1624C101.155 39.1015 101.347 39.0319 101.547 38.9796C103.821 38.3876 107.001 38.7708 109.292 39.1278C112.306 39.6066 115.546 39.981 118.499 40.9561C116.06 41.6701 113.595 42.3055 111.138 42.8627ZM149.581 10.9359C149.485 11.3712 149.015 12.1635 148.762 12.6772C147.987 14.2531 147.081 15.7506 146.044 17.161C144.032 19.9123 141.654 22.5242 139.241 24.9272C137.203 26.9646 134.972 28.6623 132.725 30.4124C136.418 22.3153 141.053 13.5217 149.581 10.9359ZM184.034 12.7642C184.226 11.6585 184.461 10.4135 184.923 9.45574C185.071 9.15972 185.175 8.98555 185.315 8.81142C185.445 9.07262 185.559 9.34262 185.654 9.61253C186.029 10.7008 186.29 11.8239 186.473 12.9557C186.796 14.9495 186.83 17.0044 186.813 19.0156C186.778 22.9249 186.273 26.6774 185.498 30.4647C185.48 30.369 185.454 30.2732 185.428 30.1687C184.644 27.0953 183.956 24.0827 183.764 20.9135C183.59 18.1884 183.572 15.4546 184.034 12.7642ZM197.841 19.5727C199.836 16.2468 201.91 12.9122 204.253 9.81268C205.202 8.55893 206.378 7.22686 207.65 6.19078C208.086 5.84252 208.809 5.3724 209.454 5.09379C209.462 5.08508 209.471 5.08512 209.48 5.08512C210.595 9.49934 206.518 14.0442 203.687 17.3178C201.544 19.8079 199.462 22.3502 197.188 24.7271C195.925 26.0505 194.61 27.3216 193.198 28.4882C193.059 28.6014 192.928 28.7146 192.789 28.8278C194.348 25.6761 196.029 22.5852 197.841 19.5727ZM208.173 32.0928C209.157 31.8577 210.15 31.6487 211.143 31.4571C211.901 31.3178 212.903 31.1264 213.426 31.0915C213.748 31.0654 214.062 31.0479 214.384 31.0654C214.384 31.0654 214.75 31.1263 214.837 31.1524C214.785 31.135 215.081 31.3789 214.889 31.1264C214.968 31.2309 215.046 31.3614 215.107 31.492C215.116 31.5094 215.159 31.6488 215.185 31.7359C215.194 31.7446 215.203 31.7619 215.212 31.7881C215.22 31.8055 215.22 31.8403 215.22 31.8665C215.212 31.849 215.212 31.8316 215.203 31.7967C215.203 31.7793 215.194 31.762 215.185 31.7359C215.142 31.6314 215.212 31.91 215.22 31.9013C215.22 31.91 215.22 31.91 215.22 31.9187C215.194 31.9622 215.116 32.2407 215.159 32.1972C215.081 32.3626 214.985 32.5193 214.872 32.6761C214.907 32.5977 214.454 33.1028 214.375 33.1724C214.323 33.2247 214.009 33.4772 213.966 33.5207C213.731 33.6948 213.487 33.8515 213.243 34.0082C212.685 34.3478 212.11 34.6525 211.527 34.9311C211.457 34.9572 210.961 35.1836 210.943 35.1923C210.734 35.2794 210.534 35.3578 210.333 35.4361C209.724 35.6712 209.105 35.8801 208.478 36.0629C206.692 36.6028 204.854 36.9684 203.007 37.1599C201.038 37.3602 199.052 37.4299 197.084 37.4125C196.169 37.4038 195.202 37.4037 194.244 37.3776C194.993 36.9684 195.742 36.5593 196.5 36.1762C200.167 34.3043 204.166 33.0331 208.173 32.0928ZM231.11 102.677C230.63 101.615 230.369 100.979 229.899 99.7427C228.949 97.2091 228.148 94.5971 227.721 91.9242C227.364 89.6866 227.285 87.066 228.148 85.0635C228.287 84.724 228.47 84.4192 228.679 84.1231C229.341 84.8806 229.803 85.7774 230.151 86.77C230.857 88.8073 231.423 90.9317 231.841 93.0474C232.625 97.0698 232.652 101.179 232.408 105.263C231.937 104.418 231.502 103.556 231.11 102.677ZM237.286 107.483C238.061 104.244 239.054 101.057 240.431 98.0101C241.633 95.3285 243.044 92.6381 245.03 90.4441C246.023 89.3558 247.121 88.372 248.393 87.6233C249.386 87.0399 250.562 86.5785 251.485 86.7526C252.365 86.9093 253.236 87.6841 253.619 88.4851C253.593 88.4677 253.75 88.9205 253.776 89.025C253.802 89.1208 253.82 89.2164 253.837 89.3122C253.837 89.3558 253.837 89.4168 253.837 89.5039C253.837 89.7651 253.837 90.0176 253.82 90.2788C253.802 90.5661 253.802 90.5224 253.707 90.9665C253.184 93.3172 251.929 95.3808 250.475 97.3833C250.422 97.4617 250.361 97.54 250.3 97.6183C250.3 97.6183 250.3 97.6183 250.292 97.627C250.118 97.8534 249.935 98.0798 249.743 98.2975C249.203 98.9157 248.619 99.4989 248.009 100.065C246.833 101.153 245.562 102.12 244.264 103.069C242.939 104.044 241.589 105.002 240.291 106.011C239.237 106.821 238.262 107.831 237.051 108.423C237.129 108.101 237.208 107.788 237.286 107.483ZM248.445 111.026C250.954 110.086 253.593 109.215 256.233 109.294C257.113 109.311 258.141 109.529 258.62 109.973C258.663 110.008 258.689 110.034 258.707 110.043C258.759 110.121 258.811 110.208 258.855 110.286C258.855 110.33 258.968 110.617 258.994 110.696C258.994 110.722 259.003 110.765 259.003 110.809C259.012 110.922 259.012 111.044 259.012 111.157C258.977 111.618 259.038 111.305 258.942 111.653C258.681 112.689 258.21 113.386 257.348 114.161C256.668 114.77 255.458 115.432 254.543 115.789C252.051 116.764 249.595 117.156 247.008 117.199C244.168 117.252 241.554 116.442 239.046 115.223C240.108 114.988 241.119 114.518 242.077 114.03C244.316 112.89 246.232 111.854 248.445 111.026ZM230.561 176.03C231.188 171.319 232.338 166.6 234.612 162.404C235.831 160.149 237.199 158.094 239.054 156.309C239.83 155.552 240.666 154.559 241.642 154.063C242.155 153.802 242.635 153.75 243.149 153.802C244.028 155.717 243.872 157.607 242.905 159.635C241.581 162.404 240.396 165.286 238.697 167.845C236.432 171.267 233.488 174.166 230.448 176.926C230.482 176.63 230.526 176.326 230.561 176.03ZM238.575 191.623C241.162 192.502 243.689 193.765 245.657 195.689C246.441 196.464 247.112 197.308 247.644 198.266C247.879 198.693 248.096 199.128 248.297 199.572C248.34 199.659 248.358 199.703 248.367 199.72C248.375 199.738 248.393 199.781 248.428 199.859C248.541 200.156 248.654 200.46 248.759 200.774C249.238 202.141 249.455 202.968 249.438 204.161C249.438 204.274 249.429 204.387 249.421 204.491C249.421 204.526 249.421 204.544 249.421 204.552C249.421 204.578 249.421 204.578 249.412 204.605C249.386 204.7 249.281 205.031 249.264 205.118C249.255 205.136 249.246 205.153 249.238 205.17L249.229 205.179C249.212 205.205 249.194 205.24 249.185 205.249C249.055 205.379 249.151 205.24 249.212 205.179C247.278 205.057 245.596 204.404 243.924 203.316C242.06 202.106 240.248 201.087 238.653 199.494C235.866 196.699 233.209 193.443 231.293 189.925C231.51 189.96 231.719 189.995 231.928 190.03C234.202 190.378 236.397 190.874 238.575 191.623ZM236.937 184.37C240.178 182.725 243.288 180.862 246.398 178.99C251.572 175.89 257.235 173.322 263.324 172.739C263.994 172.678 264.665 172.643 265.336 172.651C265.946 172.651 266.608 172.704 266.956 172.782C267.523 172.913 268.167 173.104 268.498 173.296C268.577 173.339 268.847 173.539 268.873 173.539C268.925 173.592 268.986 173.644 269.03 173.705C269.047 173.722 269.064 173.749 269.082 173.783C269.117 173.844 269.134 173.87 269.152 173.879C269.152 173.914 269.16 173.966 269.169 174.062C269.178 174.097 269.186 174.123 269.186 174.14C269.186 174.184 269.195 174.236 269.195 174.28C269.195 174.358 269.178 174.802 269.186 174.819C269.143 175.133 269.064 175.446 268.986 175.751C268.69 176.857 268.202 177.806 267.496 178.755C264.265 183.099 258.306 185.311 253.097 186.016C249.046 186.565 244.9 186.216 240.901 185.415C239.49 185.128 238.07 184.806 236.65 184.51C236.746 184.458 236.842 184.414 236.937 184.37ZM179.304 329.831C178.529 327.193 177.875 324.172 178.598 321.481C178.746 320.907 178.921 320.437 179.234 319.949C179.339 319.784 179.461 319.653 179.591 319.496C179.6 319.514 179.6 319.505 179.609 319.505C179.67 319.531 179.731 319.557 179.792 319.601C179.853 319.636 180.184 319.862 180.219 319.879C180.454 320.071 180.68 320.289 180.889 320.506C182.344 322.004 183.433 323.945 184.008 326.078C184.748 328.804 184.958 331.624 185.106 334.437C185.228 336.805 185.315 339.173 185.498 341.533C185.541 342.142 185.576 342.751 185.602 343.361C185.48 343.692 185.358 344.023 185.245 344.362C184.417 342.734 183.651 341.071 182.919 339.399C181.569 336.291 180.262 333.087 179.304 329.831ZM189.148 354.096C189.496 353.992 189.844 353.887 190.193 353.783C190.393 353.748 190.594 353.722 190.794 353.696C191.848 353.565 192.92 353.521 193.982 353.582C195.803 353.696 197.51 354.349 199.07 355.254C202.197 357.056 204.619 359.747 206.579 362.742C208.896 366.311 210.839 370.16 212.738 373.956C213.008 374.504 213.252 375.035 213.644 375.514C213.887 375.819 214.158 376.106 214.297 376.481C214.384 376.707 214.41 376.916 214.384 377.116C213.67 377.282 212.947 377.421 212.241 377.334C210.987 377.186 209.68 376.82 208.53 376.298C206.143 375.201 203.782 373.991 201.587 372.528C197.528 369.829 194.566 366.259 192.318 361.958C191.238 359.903 190.297 357.762 189.47 355.594C189.296 355.15 189.165 354.697 189.043 354.253C189.087 354.201 189.113 354.148 189.148 354.096ZM190.393 344.023C191.561 340.941 193.12 337.954 194.819 335.238C196.038 333.296 197.415 331.476 199.026 329.848C200.786 328.081 202.807 326.714 204.924 325.417C207.058 324.102 209.244 322.813 211.492 321.708C213.225 320.854 215.273 320.01 217.215 320.262C218.731 320.454 220.16 321.899 220.935 323.24C221.771 324.677 221.971 326.096 221.841 327.872C221.562 331.363 219.262 335.011 216.649 337.623C212.964 341.306 208.199 343.657 203.321 345.355C200.681 346.269 197.998 347.052 195.272 347.671C193.442 348.08 191.613 348.48 189.801 348.951C190.358 347.444 190.454 345.703 190.393 344.023ZM65.1257 301.752C65.2564 298.096 65.7704 294.447 66.9725 290.982C68.0004 288.031 69.7689 284.957 72.3213 283.434C73.5234 282.72 74.4991 282.432 75.7622 282.476C75.797 282.476 75.9189 282.485 75.9712 282.485C76.0845 282.511 76.1978 282.528 76.3023 282.554C76.3807 282.572 76.9992 282.789 76.9382 282.755C77.6525 283.077 77.9922 283.347 78.5323 284.017C80.5011 286.481 80.6057 290.277 80.353 293.438C80.083 296.964 79.2206 300.629 77.8529 303.894C76.1368 307.969 73.5147 311.617 71.2149 315.378C70.3961 316.719 69.5162 317.973 68.5144 319.148C68.3054 319.192 68.0963 319.252 67.9046 319.34C66.7809 317.233 66.1973 314.699 65.8053 312.566C65.1693 309.022 65.0038 305.348 65.1257 301.752ZM80.5534 317.912C82.1388 317.119 83.7591 316.405 85.4665 315.918C86.9735 315.491 88.8813 315.056 90.2925 315.718C90.458 315.796 90.8936 316.214 90.9807 316.51C90.9372 316.501 90.8675 316.936 90.8587 316.954C90.7629 317.154 90.4929 317.555 90.3535 317.72C89.3256 318.922 87.9056 319.697 86.4682 320.384C85.1093 321.037 84.2469 321.386 82.7051 321.934C81.1458 322.483 79.5603 322.944 77.94 323.249C76.5375 323.519 75.0566 323.641 73.4712 323.475C73.4276 323.475 73.0268 323.414 72.6784 323.327C72.4432 323.275 72.208 323.205 71.9728 323.127C72.2516 322.874 72.5478 322.622 72.8178 322.413C73.6192 321.786 74.4816 321.229 75.3527 320.698C77.034 319.679 78.7937 318.782 80.5534 317.912ZM55.6654 314.542C52.3899 312.566 48.7748 310.18 46.4663 307.063C45.5865 305.87 44.8286 304.373 45.0638 302.849C45.1596 302.257 45.5342 301.735 45.6561 301.317C45.691 301.334 45.7346 301.343 45.7694 301.352C45.8478 301.395 45.9349 301.421 46.1527 301.552C52.4248 305.244 56.9198 310.824 60.3433 317.111C58.7579 316.301 57.1898 315.456 55.6654 314.542ZM11.7259 174.41C13.9211 176.073 16.2993 177.562 18.8168 178.729C16.6042 179.033 14.4002 179.451 12.2485 180.026C9.01667 180.897 5.5758 182.168 3.1715 184.588C0.741065 187.043 -0.417546 191.44 1.67315 194.487C3.66802 197.404 7.50964 197.134 10.5237 196.307C14.6006 195.201 18.5033 193.242 22.2055 191.266C24.4443 190.065 26.6395 188.785 28.7912 187.435C30.2373 186.538 31.9795 185.703 33.1729 184.423C38.5739 188.584 44.2188 192.468 49.2713 197.056C54.5242 201.836 59.1934 207.391 63.4794 213.041C67.8785 218.849 72.4083 224.577 76.7117 230.463C78.8198 233.354 81.0238 236.27 82.7486 239.405C84.4386 242.478 86.024 245.612 87.7227 248.686C89.6305 252.151 91.4859 255.686 93.2369 259.221C95.0314 262.86 95.7893 266.882 97.5403 270.531C97.549 270.548 97.5577 270.557 97.5664 270.574C97.7406 271.079 97.9148 271.593 98.0891 272.106C102.889 286.289 108.708 300.229 112.053 314.847C113.673 321.96 114.876 329.161 115.912 336.378C116.984 343.822 118.081 351.284 118.369 358.798C118.961 373.973 116.87 389.149 114.475 404.089C113.29 411.49 111.583 418.673 109.083 425.742C106.635 432.629 103.751 439.342 101.155 446.168C95.7893 460.264 90.0922 474.186 84.4038 488.151C79.4819 500.227 75.1088 512.425 71.4414 524.91C72.0163 518.589 72.2864 512.242 71.8857 505.86C71.3979 498.181 70.1608 490.571 68.6102 483.049C67.1032 475.744 64.6989 468.701 62.9828 461.457C61.2318 454.065 59.7422 446.629 58.1829 439.203C56.6236 431.811 55.4563 424.402 54.8117 416.87C53.5398 401.895 53.4788 386.659 55.5172 371.762C56.5016 364.5 57.7734 357.283 59.8554 350.248C61.8939 343.387 64.4986 336.7 67.2426 330.092C67.6956 329.004 68.1398 327.907 68.5841 326.818C70.8664 328.072 73.5843 328.455 76.189 328.255C79.6909 327.976 83.0709 326.958 86.3028 325.617C89.6131 324.241 93.4808 322.509 95.0924 319.07C96.1464 316.815 95.798 314.351 93.9512 312.592C92.3658 311.077 90.127 310.581 87.984 310.694C84.3602 310.877 80.9628 312.392 77.7483 314.02C78.1491 313.349 78.5498 312.688 78.9418 312.026C81.2416 308.239 83.0535 304.277 84.0989 299.959C85.0571 295.954 85.5449 291.783 84.9438 287.691C84.4124 284.043 82.6005 280.09 79.0637 278.488C75.6837 276.965 71.8073 277.818 68.9064 279.986C65.7181 282.354 63.7232 285.872 62.4166 289.563C60.3084 295.501 59.9164 302.161 60.5001 308.526C58.784 306.167 56.8414 303.972 54.5765 302.074C53.1739 300.899 51.6669 299.846 50.1598 298.809C48.8357 297.895 47.2155 296.842 45.5342 296.868C41.2309 296.946 40.1332 302.675 41.074 305.949C42.1107 309.553 45.0377 312.287 47.8601 314.577C51.3708 317.433 55.256 319.705 59.2718 321.769C60.6831 322.491 62.1814 323.109 63.6275 323.78C63.6362 323.815 63.6535 323.841 63.6623 323.867C63.9846 324.555 64.6989 324.92 65.4394 324.99C62.5037 331.128 59.777 337.362 57.4773 343.77C55.0294 350.596 53.2785 357.579 52.0938 364.735C49.6111 379.807 48.8793 395.017 49.672 410.262C49.7592 411.803 49.855 413.344 49.9769 414.885C47.9908 408.974 46.0308 403.027 43.7049 397.237C41.4138 391.517 38.9572 385.823 35.8473 380.494C32.7113 375.105 28.7999 370.16 24.5576 365.597C19.81 360.478 14.6964 355.716 9.55682 350.997C7.70132 349.29 5.0618 351.919 6.79534 353.757C15.1146 362.602 24.4443 370.787 30.9341 381.165C37.4763 391.63 41.4399 403.462 45.6388 414.981C48.1128 421.798 49.8114 428.885 52.4771 435.642C52.5816 435.894 52.7209 436.129 52.8864 436.33C54.1496 442.825 55.6305 449.302 57.094 455.754C57.939 459.463 58.7839 463.181 59.8119 466.846C60.7962 470.355 61.9723 473.811 62.9306 477.329C64.9341 484.686 66.3802 492.33 67.2862 499.887C68.2096 507.541 68.4186 515.263 67.7826 522.951C67.1642 530.543 66.0665 538.092 65.1257 545.649C64.8818 547.556 64.6553 549.463 64.4463 551.378C64.394 551.778 64.5508 552.162 64.7947 552.475C63.4967 559.858 62.6431 567.311 62.434 574.851C62.3295 578.56 62.3643 582.278 62.5211 585.995C62.6257 588.66 66.7809 588.677 66.6851 585.995C65.57 555.914 74.2552 526.242 85.1878 498.494C90.6671 484.581 96.7388 470.903 102.122 456.947C104.483 450.826 106.818 444.688 109.222 438.576C109.292 438.498 109.361 438.419 109.414 438.323C111.801 434.336 114.1 430.296 116.67 426.413C119.196 422.591 122.028 418.986 124.963 415.469C127.925 411.916 130.974 408.442 133.944 404.899C136.828 401.451 139.633 397.925 142.499 394.46C148.187 387.582 154.015 380.825 160.209 374.4C166.281 368.114 172.631 361.723 179.975 356.917C181.36 356.012 182.745 355.106 184.13 354.209C184.173 354.444 184.208 354.688 184.269 354.932C184.67 356.682 185.454 358.345 186.151 359.99C187.432 362.994 188.878 365.937 190.768 368.601C194.88 374.382 201.126 378.588 207.729 381.086C209.375 381.713 211.361 382.218 213.13 382.166C214.079 382.14 215.098 381.8 216.03 381.609C217.241 381.356 217.999 380.886 218.513 379.746C219.349 377.926 219.332 376.028 218.478 374.217C218.147 373.503 217.59 372.937 217.207 372.267C216.71 371.405 216.309 370.473 215.848 369.585C212.894 363.83 209.828 357.57 204.706 353.408C203.617 352.529 202.467 351.728 201.265 351.049C203.425 350.405 205.568 349.664 207.65 348.811C213.783 346.286 219.532 342.647 223.278 337.057C226.397 332.417 228.017 326.087 225.134 320.95C223.548 318.112 220.796 315.883 217.511 315.517C214.341 315.169 211.161 316.501 208.399 317.938C205.229 319.583 202.066 321.403 199.165 323.501C196.448 325.469 194.2 327.863 192.223 330.562C191.378 331.729 190.611 332.939 189.897 334.184C189.696 329.787 189.27 325.391 187.353 321.49C186.09 318.93 183.903 315.996 181.133 315.021C177.048 313.576 174.356 317.798 173.79 321.272C173.171 325.095 173.964 329.021 175.21 332.643C176.673 336.918 178.415 341.132 180.367 345.207C180.994 346.504 181.682 348.141 182.553 349.647C181.273 350.483 180.01 351.327 178.729 352.163C175.584 354.218 172.605 356.421 169.765 358.902C158.693 368.584 148.945 379.676 139.633 391.038C134.911 396.802 130.268 402.626 125.477 408.329C122.089 412.369 118.761 416.452 115.694 420.736C116.269 418.812 116.792 416.87 117.245 414.911C118.892 407.72 119.867 400.354 120.869 393.041C121.888 385.64 122.733 378.205 123.073 370.734C123.151 368.967 123.186 367.208 123.186 365.441C123.639 365.249 123.97 364.831 123.918 364.187C123.369 357.622 122.933 351.066 122.576 344.493C122.942 344.249 123.177 343.814 123.021 343.248C122.794 342.429 122.594 341.611 122.385 340.792C122.359 340.157 122.324 339.53 122.289 338.894C122.35 338.485 122.393 338.076 122.472 337.667C122.55 337.214 122.42 336.84 122.176 336.57C122.062 334.106 121.967 331.633 121.879 329.169C121.897 326.975 121.932 324.79 122.01 322.605C122.306 322.134 122.385 321.56 122.08 321.002C122.306 316.231 122.785 311.477 123.822 306.793C124.789 302.423 126.287 298.191 127.777 293.969C129.284 289.685 130.887 285.436 132.603 281.231C135.852 273.291 139.807 265.707 143.57 258.019C145.731 253.605 147.821 249.104 149.538 244.481C153.275 239.065 157.291 233.85 161.603 228.878C167.108 222.523 173.511 217.159 180.314 212.24C187.135 207.304 194.043 202.323 201.491 198.362C209.192 194.252 217.294 190.935 224.838 186.556C224.977 187.209 225.16 187.862 225.395 188.506C226.449 191.344 228 193.948 229.803 196.368C231.51 198.667 233.357 200.983 235.396 202.994C237.425 204.996 239.838 206.476 242.269 207.939C243.488 208.662 244.839 209.236 246.224 209.567C247.678 209.916 249.795 210.36 251.198 209.654C255.501 207.486 254.342 201.714 252.853 198.153C251.903 195.855 250.64 193.808 248.811 192.093C248.401 191.71 247.975 191.353 247.539 191.005C249.36 191.074 251.189 191.031 253.01 190.805C259.796 189.995 266.982 187.226 271.26 181.654C273.08 179.277 274.57 175.829 273.786 172.791C272.924 169.456 269.465 168.176 266.364 167.915C262.984 167.628 259.456 168.42 256.224 169.334C252.731 170.336 249.412 171.746 246.25 173.539C242.33 175.76 238.549 178.198 234.524 180.235C234.054 180.47 233.584 180.696 233.122 180.931C236.693 177.684 240.143 174.306 242.826 170.266C244.595 167.602 245.875 164.572 247.208 161.673C248.541 158.799 249.081 155.674 247.887 152.652C247.591 151.904 247.252 151.146 246.79 150.485C246.197 149.623 245.387 149.327 244.403 149.152C242.992 148.9 241.554 148.961 240.204 149.492C238.741 150.067 237.721 151.042 236.58 152.087C235.535 153.044 234.542 154.028 233.653 155.143C229.89 159.827 227.616 165.617 226.484 171.485C225.944 174.314 225.778 177.318 225.282 180.043C225.151 180.801 225.003 181.55 224.881 182.307C217.285 186.295 209.384 189.647 201.744 193.539C194.061 197.457 187.074 202.411 180.088 207.434C173.154 212.414 166.35 217.734 160.662 224.142C159.294 225.683 157.961 227.268 156.655 228.878C158.737 221.138 161.62 213.642 164.826 206.294C168.598 197.665 172.849 189.255 177.771 181.219C182.867 172.895 188.808 165.12 194.618 157.293C200.524 149.361 206.544 141.465 213.182 134.125C219.14 127.534 225.534 121.361 232.077 115.362C232.085 115.38 232.085 115.397 232.094 115.415C232.712 117.104 234.281 118.14 235.805 118.932C239.098 120.647 242.53 121.875 246.267 121.962C251.895 122.092 259.604 120.491 262.618 115.18C264.134 112.489 264.299 108.771 261.886 106.525C259.508 104.322 255.989 104.357 252.983 104.836C251.337 105.097 249.726 105.559 248.158 106.116C250.135 104.618 252.051 103.025 253.611 101.092C256.843 97.0785 260.876 90.2265 257.243 85.2725C255.031 82.2688 251.328 81.1978 247.861 82.5908C244.525 83.9316 241.903 86.4913 239.821 89.3471C238.584 91.0362 237.547 92.8384 236.65 94.7103C236.493 93.4914 236.284 92.2726 236.014 91.0624C235.021 86.7004 233.749 81.6941 229.585 79.3172C228.705 78.8122 227.704 79.0125 226.972 79.6568C222.912 83.1916 222.825 89.0076 223.679 93.9007C224.507 98.6283 226.24 103.408 228.496 107.64C229.245 109.041 230.125 110.417 231.171 111.645C224.742 117.112 218.504 122.824 212.685 128.953C205.786 136.232 199.575 144.129 193.538 152.139C187.553 160.097 181.429 168.054 176.063 176.448C170.967 184.423 166.603 192.842 162.761 201.479C159.181 209.532 155.888 217.743 153.519 226.232C153.78 220.346 153.04 214.434 151.332 208.732C149.982 204.204 148.536 199.72 147.247 195.175C146.001 190.796 144.773 186.417 143.326 182.089C141.41 176.387 139.215 170.762 136.636 165.32C137.15 161.568 137.647 157.816 138.143 154.063C139.049 147.237 139.947 140.368 140.513 133.489C143.814 122.493 148.118 111.819 152.717 101.31C157.996 89.2775 164.129 77.7586 170.654 66.3704C173.929 60.6589 177.361 55.0607 180.828 49.4624C181.578 48.2609 182.301 47.0333 183.067 45.8318C183.947 44.4649 184.923 43.4114 186.046 42.2621C186.343 41.9574 186.595 41.6351 186.83 41.2956C187.153 41.1475 187.466 40.9996 187.789 40.8429C189.435 41.8006 191.43 41.9574 193.303 42.0531C195.576 42.175 197.859 42.2273 200.141 42.1315C204.201 41.9574 208.312 41.3566 212.093 39.833C215.064 38.6315 218.513 36.925 219.663 33.6948C220.255 32.058 219.951 30.1774 219.001 28.7234C217.825 26.9299 215.778 26.2158 213.705 26.3203C211.231 26.4335 208.704 27.0604 206.317 27.6524C203.661 28.3054 201.047 29.1326 198.495 30.1251C199.392 29.2893 200.263 28.4186 201.099 27.5218C203.521 24.936 205.795 22.1934 208.077 19.477C212.389 14.3575 216.658 7.8886 213.034 1.17584C212.642 0.461902 211.788 -0.0169589 210.969 0.000454169C207.154 0.0788132 204.053 2.62109 201.701 5.40719C199.174 8.40225 197.049 11.7717 194.984 15.0801C193.695 17.161 192.449 19.2681 191.273 21.4099C191.395 19.39 191.421 17.3526 191.308 15.2978C191.125 12.2505 190.681 9.07262 189.243 6.33005C188.878 5.65094 188.555 4.78903 187.998 4.23181C187.527 3.76165 186.848 3.53521 186.203 3.42203C185.376 3.28272 184.557 3.36993 183.808 3.77913C183.189 4.11869 182.727 4.8848 182.457 5.23306C181.534 6.39974 180.837 7.33138 180.323 8.75054C179.879 9.98688 179.661 11.2929 179.452 12.5814C178.947 15.7419 178.955 18.9285 179.191 22.1064C179.461 25.6935 180.341 29.0977 181.186 32.5803C181.551 34.104 181.856 35.5841 181.943 36.7595C182.013 37.9 182.161 38.9709 182.614 39.946C182.379 40.1898 182.135 40.4336 181.926 40.6774C181.098 41.6003 180.419 42.6364 179.774 43.6899C177.309 47.6862 174.879 51.7086 172.492 55.7484C167.579 64.0632 162.787 72.4912 158.397 81.0845C154.05 89.5734 150.182 98.3061 146.532 107.108C144.624 111.732 142.795 116.381 141.088 121.082C141.131 117.809 141.131 114.544 141.288 111.27C141.506 106.612 141.95 101.963 141.933 97.2876C141.898 87.7191 140.182 78.2375 138.544 68.8431C138.492 68.521 138.44 68.1989 138.379 67.8767C138.457 67.7374 138.509 67.5894 138.509 67.4152V61.1727C138.509 60.6329 138.03 60.1191 137.481 60.1453C137.324 60.154 137.185 60.1889 137.054 60.2498C135.965 54.312 134.685 48.4176 132.551 42.7235C131.958 41.1737 131.331 39.6327 130.695 38.1003C130.73 38.0655 130.774 38.0307 130.808 37.9959C132.315 36.629 133.814 35.2532 135.469 34.0604C137.159 32.8241 138.788 31.5182 140.339 30.1165C143.283 27.4261 145.844 24.3963 148.37 21.3228C149.721 19.686 150.94 17.936 151.951 16.0641C152.822 14.4446 154.033 12.5553 153.972 10.6573C153.919 8.71575 152.256 6.08627 150.078 6.28652C148.457 6.43453 146.785 7.14857 145.321 7.82768C142.577 9.09013 140.147 11.0578 138.109 13.2693C135.53 16.0815 133.474 19.2942 131.68 22.6462C131.549 20.9571 131.296 19.2855 130.913 17.6312C130.277 14.8625 129.284 12.0677 127.768 9.66473C126.192 7.16595 123.735 4.49307 120.581 4.34506C117.306 4.19705 114.954 6.99179 113.36 9.49927C111.33 12.6946 110.912 16.2903 111.644 19.9645C112.314 23.3339 113.752 26.7732 115.337 29.8117C116.592 32.2148 118.177 34.4261 119.902 36.5069C119.876 36.4982 119.85 36.4896 119.824 36.4809C118.012 35.976 116.182 35.558 114.336 35.2185C111.696 34.7309 109.013 34.2694 106.339 34.0518C103.647 33.8341 100.816 33.9648 98.3504 35.1663C95.3537 36.629 93.5505 40.0332 95.0401 43.1937C96.5036 46.3367 100.223 47.7471 103.429 48.1302C106.739 48.522 110.145 47.8951 113.351 47.1289C116.844 46.2931 120.346 45.3791 123.752 44.2646C124.981 43.8554 126.488 43.5158 127.524 42.6713C128.596 45.3964 129.58 48.1651 130.364 50.9947C131.601 55.4089 132.211 59.9625 133.03 64.4725C134.711 73.7711 136.497 83.1394 137.037 92.586C137.298 97.2702 137.098 101.937 136.802 106.621C136.497 111.401 136.418 116.163 136.34 120.961C136.192 130.459 135.242 139.915 134.127 149.344C133.779 152.322 133.404 155.299 133.03 158.277C132.908 158.051 132.795 157.824 132.664 157.606C130.416 153.619 127.934 149.771 125.582 145.844C123.291 142.03 121.156 138.147 118.648 134.473C116.095 130.738 113.342 127.099 110.363 123.703C107.558 120.499 104.431 117.6 101.574 114.457C95.8329 108.153 91.7385 100.483 88.1234 92.821C87.531 91.576 86.9474 90.3223 86.3638 89.0685C86.3638 89.0685 86.3637 89.0599 86.3725 89.0599C92.8536 84.0014 100.493 79.2737 104.291 71.6554C105.929 68.3818 106.835 63.4364 103.516 60.8244C100.816 58.6913 97.0873 60.0582 94.5871 61.8344C90.3186 64.8729 87.3917 69.5048 85.2749 74.4153C85.1965 73.7885 85.1093 73.1616 85.0048 72.5348C83.8113 65.4041 80.4489 58.4737 74.4729 54.1901C71.5808 52.1266 67.5039 50.3679 64.0978 52.2833C60.6482 54.2162 59.5767 58.848 59.6376 62.496C59.6986 66.9015 61.65 70.9154 64.1588 74.4415C65.5091 76.3396 66.9987 78.1331 68.4273 79.9702C69.8385 81.7899 71.1975 83.6705 72.809 85.3247C72.992 85.5163 73.1924 85.6903 73.384 85.8645C72.4084 85.7164 71.4153 85.6032 70.4135 85.5684C68.0527 85.49 65.6658 85.7601 63.3574 86.2738C60.6133 86.8919 57.7386 87.7886 55.3779 89.3471C52.5903 91.1929 50.5867 94.2228 51.7017 97.6532C52.93 101.423 56.5016 102.773 60.1952 102.355C63.9933 101.928 67.6869 100.5 71.2062 99.0984C73.6541 98.1146 76.0671 97.0525 78.4366 95.8945C79.7868 95.2241 81.5377 94.6582 82.5831 93.5089C82.888 93.178 83.1319 92.8036 83.3496 92.403C85.8846 98.724 88.7507 104.932 92.5488 110.591C91.0853 110.33 89.5346 110.487 88.1583 110.974C83.6894 112.559 80.6056 116.668 78.9766 120.969C77.9138 123.756 77.4695 126.777 77.4086 129.789C76.5287 128.535 75.5009 127.386 74.3248 126.367C71.3456 123.808 65.1519 118.984 61.3363 122.589C56.7978 126.872 63.5229 132.732 66.598 135.474C69.3333 137.912 72.2516 140.054 75.1698 142.257C75.7361 142.675 76.3109 143.241 76.9294 143.746C76.9382 144.077 76.9469 144.407 76.9469 144.738C76.9469 145.731 77.5132 146.366 78.2188 146.636C75.0305 159.235 75.1785 172.39 76.311 185.293C77.609 200.138 80.4924 214.756 84.4124 229.122C85.51 233.119 86.6774 237.097 87.8882 241.068C87.6879 240.667 87.4788 240.258 87.2785 239.849C85.7017 236.575 83.7765 233.58 81.7033 230.594C77.4609 224.482 72.8701 218.648 68.3751 212.728C63.9498 206.912 59.2457 201.218 53.958 196.151C48.4176 190.848 42.0497 186.53 35.9431 181.915C37.1801 180.601 37.877 178.711 38.6523 177.17C39.8458 174.767 41.0567 172.373 42.1978 169.944C43.9488 166.226 45.7607 162.378 46.6928 158.364C47.6249 154.342 47.5813 149.953 44.7066 146.688C43.3825 145.182 41.4399 144.12 39.3928 144.294C37.5112 144.451 35.8734 145.487 34.5667 146.81C31.875 149.536 30.2373 153.297 29.2442 156.936C28.9393 158.051 28.6954 159.182 28.5038 160.323C27.7894 158.765 26.9967 157.25 26.1256 155.769C23.9565 152.121 21.2647 148.743 17.8064 146.244C14.7226 144.007 10.428 142.396 6.61244 143.458C2.96243 144.468 0.819416 147.855 0.244474 151.434C-0.487269 155.952 0.453527 160.532 2.66618 164.52C4.86141 168.49 8.14555 171.694 11.7259 174.41Z" fill="#454B4D"/>
</svg>
