<svg width="154" height="324" viewBox="0 0 154 324" fill="none" xmlns="http://www.w3.org/2000/svg">
<path d="M4.2041 69.7363C4.47246 72.0216 4.73894 74.312 4.93963 76.6073C5.3453 81.2341 5.28039 85.8743 5.47134 90.5153C5.6607 95.0807 5.98501 99.6432 6.4185 104.194C6.84771 108.708 7.30633 113.221 8.25076 117.663C10.0698 126.227 13.2363 134.479 16.5747 142.563C19.9813 150.828 23.9222 158.871 28.9803 166.276C31.4826 169.94 34.2081 173.599 35.9248 177.71C36.3854 178.796 36.7813 179.915 37.1458 181.041C37.1747 180.641 37.2055 180.237 37.2344 179.838C36.9683 179.833 36.7041 179.679 36.6416 179.339C35.1517 171.311 33.327 163.322 30.9379 155.508C29.7479 151.629 28.4114 147.801 27.3049 143.9C26.2125 140.056 24.9938 136.288 23.5912 132.545C20.7808 125.058 18.0684 117.525 15.5491 109.941C14.3301 106.254 13.4107 102.479 12.1795 98.7925C10.963 95.1462 9.60735 91.5301 8.78595 87.7736C8.30589 85.5902 7.77174 83.4275 7.15777 81.2761C6.55693 79.1527 5.7932 77.0449 5.29501 74.8953C4.81197 72.832 4.67941 70.7174 4.36811 68.63C4.35053 68.5024 4.32595 68.378 4.30651 68.2555C4.16313 68.0417 4.01649 67.8209 3.86797 67.6052C3.97617 68.3315 4.12775 69.0505 4.2041 69.7363ZM37.8609 157.982C37.5063 149.76 35.9834 141.662 34.057 133.665C32.1533 125.797 29.7471 118.047 26.936 110.449C24.1184 102.838 20.9844 95.2958 17.1566 88.1247C15.2736 84.5822 13.1943 81.1471 10.8778 77.8682C9.27431 75.6049 7.72354 73.3088 6.1727 71.0127C6.21744 71.3695 6.26543 71.7333 6.31532 72.092C6.83678 75.9529 8.29105 79.6337 9.27306 83.3967C9.79093 85.3803 10.1679 87.3992 10.6909 89.3847C11.1922 91.2699 11.798 93.1239 12.4247 94.9683C13.0454 96.7815 13.6782 98.5933 14.2447 100.427C14.8305 102.32 15.2996 104.246 15.8733 106.14C17.0612 110.105 18.4931 113.991 19.8536 117.898C21.1676 121.66 22.4241 125.436 23.8304 129.169C25.2396 132.926 26.666 136.683 27.8014 140.537C28.9415 144.409 30.0489 148.275 31.2673 152.124C33.8326 160.221 35.8409 168.473 37.4497 176.799C37.8678 170.533 38.1253 164.26 37.8609 157.982ZM48.809 212.455C46.0431 221.03 43.7555 229.762 42.1836 238.639C43.2513 236.92 44.3939 235.253 45.4958 233.553C48.041 229.63 50.4397 225.614 52.7413 221.546C57.4114 213.289 61.6702 204.819 65.7957 196.282C67.8513 192.026 69.9377 187.781 71.925 183.489C73.8942 179.23 75.5367 174.829 77.5162 170.574C79.4919 166.329 82.0276 162.369 84.3208 158.291C86.5995 154.237 88.5824 150.053 91.2207 146.211C96.2641 138.863 102.545 132.353 108.812 126.027C109.275 125.33 109.735 124.626 110.203 123.93C109.701 124.319 109.195 124.701 108.702 125.098C104.776 128.223 101.173 131.645 97.7036 135.26C90.6564 142.611 84.0889 150.42 77.9834 158.559C71.8332 166.756 66.0863 175.285 61.0794 184.228C56.0469 193.225 51.9772 202.647 48.809 212.455ZM41.0859 246.516C41.2315 246.5 41.366 246.514 41.5 246.546C41.8592 246.215 42.2366 245.913 42.6622 245.624C43.6876 244.918 44.7748 244.298 45.7449 243.519C46.6497 242.792 47.4587 241.961 48.2152 241.082C49.8116 239.239 51.2471 237.262 52.9772 235.531C54.7838 233.718 56.6119 231.942 58.3408 230.054C61.8377 226.236 65.0707 222.183 67.7818 217.773C70.4441 213.449 72.6496 208.861 74.6393 204.194C76.6475 199.476 78.4282 194.664 80.1985 189.848C82.0779 184.748 84.0503 179.665 85.6091 174.454C87.1787 169.231 88.4824 163.921 90.4687 158.832C92.429 153.814 94.889 149.006 97.543 144.321C99.9129 140.145 102.457 136.066 104.994 131.991C101.219 135.98 97.5822 140.087 94.2786 144.478C91.4669 148.205 89.1964 152.204 87.042 156.332C84.8913 160.45 82.391 164.377 80.203 168.469C77.9986 172.591 76.4472 177.013 74.5522 181.276C72.6606 185.546 70.5928 189.74 68.566 193.949C64.4852 202.426 60.3379 210.862 55.8046 219.111C53.5707 223.17 51.2619 227.178 48.8167 231.113C47.5941 233.081 46.3322 235.029 45.0465 236.962C43.8831 238.703 42.7076 240.445 41.7452 242.306C41.6616 242.472 41.5864 242.646 41.5046 242.807C41.3373 243.906 41.1822 245.004 41.0443 246.103C41.0582 246.241 41.072 246.378 41.0859 246.516ZM75.4726 98.6082C77.5561 98.9451 79.5915 99.126 81.7056 98.995C82.2406 98.9646 82.7759 98.9171 83.3127 98.8816C83.8613 98.7176 84.4067 98.5467 84.9342 98.3289C86.2019 97.8206 87.439 97.4281 88.7598 97.0776C90.0755 96.7253 91.2811 96.2117 92.4578 95.5375C93.5926 94.8827 94.7297 94.2692 95.9109 93.6948C97.19 93.0752 98.2959 92.2597 99.4068 91.3827C101.629 89.6285 103.747 87.7905 106.121 86.2419C108.338 84.8036 110.293 83.0156 112.605 81.7159C115.058 80.3344 117.766 79.3401 120.405 78.373C125.704 76.4341 131.209 75.0613 136.423 72.9069C139.233 71.7422 142.025 70.3572 144.408 68.4652C146.861 66.5067 148.702 63.8636 150.443 61.2879C150.184 59.4563 149.604 57.6581 148.834 56.0156C148.619 55.5678 148.374 55.138 148.113 54.7197C147.691 57.0943 146.562 59.2521 144.935 61.1476C142.743 63.6979 139.903 65.5211 137.099 67.3403C134.18 69.2334 131.264 71.0579 128.116 72.556C124.901 74.0813 121.627 75.4812 118.354 76.8931C115.212 78.2489 111.978 79.5366 108.951 81.1363C107.426 81.9374 106.145 83.0241 104.862 84.1503C103.553 85.3014 102.237 86.4385 100.867 87.5157C98.0913 89.7033 95.2438 91.8012 92.3145 93.7884C89.8353 95.4662 87.2511 96.921 84.3497 97.7756C82.7407 98.2462 81.0522 98.5033 79.3723 98.4171C77.5336 98.3193 75.7833 97.7226 74.081 97.0742C73.5347 96.8638 72.9944 96.6209 72.4352 96.4463C72.7016 96.7857 72.9732 97.127 73.2467 97.4631C73.8727 98.222 74.5101 98.4541 75.4726 98.6082ZM94.1502 97.2849C96.2163 96.6458 98.1781 95.6859 100.074 94.6674C102.041 93.6115 103.944 92.4455 105.844 91.2725C107.584 90.2029 109.125 88.911 110.716 87.643C112.331 86.355 114.05 85.1509 116.001 84.4122C118.104 83.6249 120.283 83.2519 122.517 83.061C124.81 82.8563 127.061 82.6195 129.334 82.2288C131.568 81.8472 133.822 81.5881 136.056 81.2409C139.308 80.7334 142.25 79.3511 144.566 77.0192C145.782 75.7881 146.742 74.3191 147.574 72.8155C148.602 70.9673 149.51 69.0004 150.105 66.9659C150.471 65.7368 150.618 64.4515 150.591 63.166C149.305 65.07 147.925 66.9404 146.27 68.5311C144.298 70.4284 141.878 71.8504 139.426 73.0532C134.312 75.5729 128.755 77.0077 123.377 78.8601C120.617 79.8065 117.887 80.8448 115.233 82.0433C113.97 82.605 112.76 83.273 111.621 84.0531C110.456 84.853 109.413 85.8008 108.247 86.6058C107.149 87.3665 106.003 88.0519 104.931 88.8563C103.736 89.755 102.594 90.7187 101.435 91.6647C100.332 92.5678 99.2195 93.4964 98.008 94.2502C96.8929 94.9468 95.6625 95.4168 94.5193 96.0628C93.1766 96.8093 91.8942 97.6297 90.4281 98.1235C90.395 98.1346 90.3637 98.1405 90.3306 98.1515C91.6237 97.9411 92.9046 97.6685 94.1502 97.2849ZM140.215 48.4628C139.109 48.1121 137.985 47.8243 136.875 47.4838C136.786 47.4571 136.706 47.4221 136.632 47.3838C136.621 47.83 136.598 48.2776 136.559 48.7195C136.007 55.1159 133.461 61.3754 129.472 66.4001C127.454 68.9383 125.061 71.2421 122.327 73.0119C119.783 74.6602 116.98 75.8045 114.288 77.1737C114.829 76.9323 115.361 76.6871 115.901 76.4507C122.011 73.7856 128.274 71.3551 133.935 67.811C136.987 65.903 140.204 64.0549 142.827 61.5811C144.091 60.396 145.164 59.0317 145.981 57.5053C146.697 56.1785 147.035 54.8009 147.123 53.3437C146.685 52.8034 146.228 52.2848 145.725 51.7958C144.113 50.2278 142.362 49.152 140.215 48.4628ZM73.787 95.4029C74.2066 95.5614 74.6211 95.718 75.0459 95.8784C76.5477 96.4539 78.0708 96.939 79.6891 97.0028C81.1052 97.0622 82.5267 96.835 83.8895 96.4652C86.671 95.6998 89.1821 94.2703 91.5452 92.6715C92.2802 92.1713 93.0101 91.6692 93.7334 91.1533C89.0893 93.5496 84.0124 95.1361 78.7507 95.4548C77.1025 95.5534 75.4396 95.5484 73.787 95.4029ZM133.558 48.5681C133.72 46.7972 133.71 44.9524 133.034 43.3556C131.608 45.6419 130.138 47.9062 128.542 50.0843C126.96 52.2389 125.216 54.2649 123.548 56.3533C121.81 58.5204 120.12 60.7335 118.303 62.8312C116.575 64.8285 114.723 66.7173 112.834 68.5639C109.017 72.2884 105.183 76.0416 101.083 79.4675C97.159 82.7491 92.8786 85.5376 88.3784 87.9863C85.2802 89.6697 82.024 91.4513 78.5891 92.4927C78.6913 92.4837 78.7916 92.4798 78.8938 92.4708C81.9217 92.228 84.9113 91.5787 87.7585 90.537C93.5751 88.4058 98.5156 84.8591 103.286 81.0136C105.956 78.8572 108.732 76.7967 111.747 75.1349C114.563 73.5857 117.621 72.4765 120.338 70.7525C125.356 67.5859 129.212 62.5882 131.437 57.1469C132.558 54.4032 133.292 51.5244 133.558 48.5681ZM127.98 39.2015C127.471 38.9699 126.956 38.7365 126.452 38.4896C126.44 38.5081 126.429 38.5215 126.417 38.54C125.344 39.8871 124.469 41.3809 123.323 42.6725C122.699 43.3804 122.031 44.0491 121.357 44.716C120.15 46.2102 118.915 47.683 117.601 49.0864C116.268 50.5115 114.921 51.9552 113.518 53.3148C112.821 53.9843 112.091 54.6135 111.436 55.3272C110.972 55.8338 110.435 56.2849 109.966 56.7896C109.829 56.959 109.684 57.1315 109.545 57.306C109.001 59.1222 108.314 60.8981 107.5 62.605C105.898 65.9525 103.859 68.9796 101.528 71.8657C99.2022 74.7365 96.83 77.6077 94.1729 80.1904C91.6503 82.6432 88.8499 84.8678 86.008 86.9504C84.9991 87.6914 83.9626 88.4282 82.9078 89.1352C84.1081 88.5562 85.2938 87.9372 86.4692 87.3145C90.8973 84.9839 95.1548 82.3544 99.0394 79.2141C103.104 75.9315 106.842 72.2648 110.597 68.65C112.502 66.8211 114.388 64.9676 116.158 63.0145C117.923 61.0595 119.536 58.9797 121.176 56.9214C123.062 54.5544 125.048 52.2471 126.866 49.8265C128.642 47.4597 130.256 44.9764 131.82 42.4693C131.959 42.2484 132.151 42.1511 132.35 42.1484C132.218 41.9676 132.074 41.7882 131.914 41.6202C130.858 40.4913 129.37 39.8286 127.98 39.2015ZM124.007 36.907C123.108 35.6677 123.33 34.017 123.35 32.587C123.356 32.4103 123.341 32.214 123.327 32.0127C122.334 33.3484 121.172 34.5417 120.007 35.728C118.554 37.208 117.272 38.779 115.986 40.3945C115.333 41.2131 114.626 41.9888 113.949 42.793C113.314 43.5606 112.744 44.3749 112.134 45.1569C111.682 45.7428 111.197 46.3226 110.796 46.9444C110.935 48.738 110.845 50.5524 110.62 52.3232C110.539 52.9459 110.43 53.5644 110.309 54.1842C111.266 53.0895 112.256 52.0182 113.243 50.952C114.851 49.2224 116.465 47.5068 118.147 45.8447C118.747 45.2495 119.374 44.6637 119.99 44.0741C121.349 42.4041 122.667 40.702 124.024 39.0371C124.138 38.8997 124.271 38.8212 124.412 38.7859C124.58 38.5471 124.749 38.3082 124.933 38.0749C124.997 37.9944 125.068 37.9107 125.132 37.8302C124.72 37.6049 124.322 37.3389 124.007 36.907ZM118.257 20.274C117.353 21.7171 116.339 23.0968 115.411 24.5255C114.26 26.3117 113.284 28.1957 112.406 30.1274C110.917 33.4182 109.791 36.8469 109.037 40.376C109.278 40.8796 109.516 41.3933 109.714 41.9213C110.081 42.8803 110.338 43.8685 110.524 44.8771C110.81 44.4906 111.1 44.1111 111.381 43.7227C112.547 42.1329 113.863 40.678 115.08 39.124C116.282 37.5987 117.516 36.1431 118.878 34.7515C120.219 33.3866 121.547 32.0231 122.605 30.4283C122.724 30.2463 122.878 30.1582 123.041 30.1253C122.928 29.5243 122.806 28.9315 122.648 28.3429C121.86 25.3895 120.306 22.6244 118.257 20.274ZM106.632 13.5435C107.377 16.7412 106.88 20.5373 106.362 23.4483C106.269 23.9745 106.171 24.4988 106.079 25.025C106.439 24.5154 106.813 24.0165 107.205 23.5302C109.18 21.0799 111.121 18.6408 113.299 16.3683C113.384 16.2781 113.475 16.219 113.562 16.1873C113.077 15.8723 112.587 15.5726 112.08 15.3015C110.374 14.3748 108.534 13.7686 106.632 13.5435ZM111.018 29.6223C111.891 27.6887 112.87 25.7825 114.005 23.9907C115.041 22.3592 116.159 20.7747 117.23 19.1614C116.373 18.3012 115.443 17.5126 114.467 16.8051C114.52 17.0436 114.472 17.3033 114.266 17.517C112.168 19.6973 110.324 22.045 108.432 24.398C107.508 25.5452 106.621 26.7175 106.029 28.072C105.868 28.4347 105.714 28.8114 105.557 29.1931C105.49 30.5771 105.561 31.9651 105.883 33.3521C106.3 35.1489 107.152 36.7578 108.009 38.3686C108.751 35.3715 109.736 32.4401 111.018 29.6223ZM76.1546 89.5056C79.1748 88.1806 81.9456 86.2453 84.5735 84.2868C87.3034 82.2559 90.0018 80.1037 92.4311 77.7151C94.8837 75.2946 97.0766 72.6122 99.2349 69.9288C103.453 64.6877 106.83 58.6092 107.653 51.838C108.033 48.715 107.994 45.4799 106.743 42.5367C106.124 41.0705 105.291 39.7112 104.568 38.2934C104.226 37.6323 103.927 36.9519 103.662 36.2553C103.625 39.9243 103.084 43.5199 101.627 46.949C100.703 49.118 99.5426 51.1717 98.394 53.2241C97.2542 55.2682 96.1008 57.3016 94.8656 59.2878C92.4223 63.2182 89.7114 66.9877 86.6194 70.4454C83.4152 74.0353 80.2858 77.6756 77.2476 81.401C74.6339 84.5999 71.8703 87.7788 69.5752 91.2379C71.8332 90.9515 74.0556 90.427 76.1546 89.5056ZM103.709 14.1364C103.515 14.6372 103.23 15.1165 102.835 15.5787C102.386 16.108 101.907 16.5917 101.518 17.1658C101.05 17.8439 100.662 18.5743 100.257 19.287C99.4638 20.6664 98.4734 21.9163 97.6054 23.2455C96.6961 24.6404 95.8377 26.0711 95.0135 27.52C91.6263 33.4677 88.2696 39.4438 85.1606 45.5389C82.0692 51.6173 79.9206 58.0965 77.6713 64.5161C76.5497 67.7097 75.387 70.8882 74.2635 74.0869C73.1182 77.3295 71.9608 80.5735 70.6304 83.7488C69.8233 85.6946 68.8638 87.5792 68.1319 89.5582C67.9653 89.9997 67.8002 90.4533 67.6557 90.9145C67.7893 90.9631 67.93 91.0085 68.0636 91.0571C69.996 88.0028 72.3198 85.2006 74.5819 82.376C77.5896 78.6222 80.6465 74.9093 83.861 71.3231C86.9317 67.8923 89.8158 64.3821 92.3658 60.5425C94.9321 56.6742 97.3215 52.6202 99.4259 48.4857C100.593 46.1917 101.539 43.8 101.998 41.2599C102.433 38.8496 102.481 36.3969 102.391 33.9572C102.379 33.6237 102.594 33.4481 102.849 33.4196C102.219 30.2579 102.671 27.0805 103.238 23.9391C103.754 21.0503 104.331 17.9933 103.912 15.1454C103.86 14.7918 103.791 14.4548 103.709 14.1364ZM100.083 10.3924C98.6221 10.0569 97.0773 10.2392 95.6251 10.5187C94.807 10.6712 93.9985 10.8617 93.1946 11.0713C90.7222 12.0589 88.632 13.5955 87.0269 15.7184C85.2483 18.0783 83.9342 20.8092 82.5848 23.4293C79.7897 28.8536 77.3962 34.4703 75.2115 40.1687C73.0176 45.8927 71.0736 51.7134 69.3647 57.6081C67.7498 63.1964 66.461 68.8804 65.835 74.6786C65.4874 77.8884 65.3365 81.1178 65.4587 84.3485C65.516 85.8701 65.6094 87.4048 65.8278 88.9158C65.8895 89.3538 65.963 89.8077 66.0122 90.2643C66.1285 90.3124 66.2398 90.3587 66.3561 90.4068C66.83 88.865 67.5117 87.3757 67.7351 86.874C68.9046 84.1885 70.048 81.5108 71.0652 78.7641C72.2716 75.4975 73.3822 72.1903 74.5526 68.9106C76.9102 62.3054 79.027 55.5779 81.8401 49.1442C84.6148 42.8004 88.1492 36.7679 91.5231 30.7288C93.3973 27.3705 95.2258 23.9782 97.439 20.8241C97.9712 20.0654 98.5133 19.3276 98.9741 18.5256C99.4092 17.7778 99.8051 17.0099 100.296 16.2998C101.234 14.9384 102.714 14.0225 102.549 12.1903C102.542 12.0664 102.558 11.957 102.593 11.8602C101.999 11.1589 101.185 10.6434 100.083 10.3924ZM82.9749 11.9463C80.0264 10.4517 78.5945 7.18883 76.3971 4.89406C76.3854 4.87826 76.3719 4.86754 76.3583 4.85683C75.8272 5.50047 75.2113 6.07288 74.6933 6.74439C73.7239 7.98463 72.9616 9.37532 72.1502 10.725C71.3388 12.0748 70.5535 13.4167 69.887 14.848C69.2443 16.2303 68.6683 17.6368 68.0853 19.0466C66.8465 22.0185 65.8541 25.0167 65.0919 28.1506C64.3541 31.201 63.6542 34.2595 62.9716 37.3184C61.659 43.1958 60.5179 49.1297 60.0525 55.1422C59.8258 58.1478 59.7612 61.172 59.9529 64.1797C60.1483 67.1773 60.5528 70.176 60.9647 73.1542C61.428 76.5033 62.0159 79.8457 62.9309 83.1052C63.2356 84.2031 63.5664 85.2932 63.8884 86.3917C63.8913 86.4158 63.9063 86.4386 63.9091 86.4627C64.0156 86.842 64.129 87.2181 64.2354 87.5974C64.1402 86.6276 64.0795 85.6589 64.0309 84.6889C63.8786 81.7647 63.9617 78.8338 64.2189 75.9202C64.7374 70.0655 65.9424 64.276 67.5278 58.6249C69.2131 52.6351 71.161 46.7235 73.3557 40.9016C75.5392 35.1104 77.932 29.3838 80.7399 23.8603C81.5247 22.3277 82.3352 20.8045 83.1696 19.2957C83.9677 17.8546 84.7345 16.4194 85.7252 15.0887C86.4675 14.089 87.3108 13.1954 88.2412 12.4142C86.4624 12.7596 84.6567 12.795 82.9749 11.9463ZM73.0364 3.22065C71.4979 3.14555 69.9133 3.67704 68.4427 4.0711C65.4232 4.88265 62.4445 5.99768 59.8493 7.75444C59.4079 8.05556 58.9782 8.37248 58.5518 8.69637C58.1152 9.43213 57.7703 10.2359 57.4565 10.9702C56.9863 12.0862 56.5469 13.2134 56.051 14.3201C55.4654 15.625 54.777 16.8925 54.2821 18.2363C53.2951 20.8842 52.8808 23.7177 52.189 26.45C51.4764 29.2556 50.6965 32.0541 50.2692 34.9231C49.8447 37.7528 49.9659 40.6022 50.1978 43.4514C50.4522 46.5109 50.5627 49.5815 50.8292 52.6396C51.3146 58.1669 53.3197 63.549 55.0797 68.7727C56.1105 71.8261 57.1797 74.9974 58.64 77.8782C59.4393 79.4563 60.3193 80.9887 61.266 82.4819C60.686 80.2852 60.2418 78.0513 59.8825 75.808C58.9109 69.8092 58.1801 63.725 58.4222 57.6543C58.6693 51.5219 59.7167 45.4614 60.9889 39.4713C61.6329 36.4387 62.3403 33.4234 63.0375 30.4044C63.7717 27.2199 64.5063 24.0182 65.6749 20.9514C66.9191 17.6928 68.271 14.3464 70.0331 11.3282C70.9086 9.83443 71.7877 8.33046 72.7483 6.89073C73.2116 6.19354 73.7115 5.55584 74.2815 4.94943C74.5939 4.61871 74.9204 4.28152 75.2146 3.92106C74.5661 3.51185 73.8427 3.26017 73.0364 3.22065ZM44.7862 32.6677C44.4107 36.0982 44.5106 39.5979 44.624 43.0447C44.8554 49.9573 45.5806 56.9688 47.0115 63.7524C47.6802 66.9049 48.6675 69.9656 49.855 72.9721C50.9434 75.7233 52.2137 78.4541 53.9059 80.9055C55.6867 83.4815 57.8618 85.6297 60.4832 87.3515C61.3234 87.9055 62.1925 88.4123 63.0868 88.8821C62.9116 88.2757 62.7486 87.668 62.5857 87.0604C60.8311 84.6843 59.2401 82.1947 57.8524 79.5944C56.4183 76.9136 55.3557 74.0276 54.339 71.1756C52.4105 65.7752 50.4915 60.2685 49.5828 54.5928C49.0842 51.4849 49.0045 48.2813 48.8144 45.1413C48.6396 42.1512 48.284 39.13 48.6003 36.1339C48.9116 33.1996 49.6484 30.3277 50.3829 27.4781C51.1173 24.6285 51.6187 21.6998 52.4803 18.8849C52.9698 17.268 53.7412 15.7882 54.4397 14.2531C54.917 13.1974 55.3533 12.1268 55.7947 11.058C52.2791 14.448 49.496 18.6241 47.4954 23.0332C46.1004 26.0983 45.1511 29.3142 44.7862 32.6677ZM3.62808 62.6348C3.67206 62.6739 3.71234 62.7231 3.75632 62.7622C3.87539 62.7709 4.00575 62.8126 4.13483 62.9058C4.57632 63.2281 4.84729 63.6672 5.02869 64.1604C5.8889 65.2354 6.61673 66.4181 7.38558 67.5522C8.61968 69.3751 9.82582 71.211 11.0599 73.0339C13.4462 76.5692 15.8892 80.0442 18.0013 83.7568C22.0798 90.9267 25.3331 98.5409 28.2611 106.233C31.2197 114.017 33.7646 121.962 35.7911 130.036C37.8209 138.117 39.4887 146.361 39.9705 154.68C40.2265 158.999 40.2095 163.316 40.0471 167.632C40.2462 166.365 40.4472 165.093 40.6532 163.824C41.9244 156.061 42.9343 148.169 44.9038 140.551C46.8927 132.847 49.5897 125.309 52.1602 117.783C53.4796 113.934 54.8504 110.104 56.4268 106.349C57.8912 102.853 59.9387 99.6903 62.0768 96.5666C62.9147 95.3361 63.7712 94.1183 64.6208 92.9037C62.5014 91.9937 60.4432 90.9156 58.5438 89.6413C52.9422 85.8882 49.4606 80.1649 47.0578 74.0204C45.8191 70.8509 44.7654 67.6045 44.0613 64.2775C43.3251 60.7829 42.8427 57.2306 42.4308 53.6924C41.997 49.9905 41.7382 46.2714 41.6214 42.5463C41.51 38.9502 41.4087 35.2942 41.8726 31.717C42.8117 24.5147 46.2414 17.6185 50.8264 12.026C53.0244 9.34546 55.5939 6.95593 58.5156 5.0698C61.3986 3.20999 64.5829 2.02555 67.8983 1.13696C69.5237 0.701148 71.1651 0.253789 72.863 0.242626C74.4848 0.232627 76.0805 0.790317 77.3732 1.78034C78.7507 2.84158 79.7999 4.24509 80.827 5.62906C81.7422 6.85684 82.6906 8.28143 84.0059 9.12958C86.2012 10.5347 89.43 9.02004 91.7278 8.38446C94.8751 7.50975 98.339 6.69261 101.555 7.72455C103.285 8.27939 104.503 9.25339 105.342 10.4823C111.39 10.5134 116.998 14.1997 120.791 18.6854C122.905 21.1924 124.48 24.0285 125.412 27.1614C125.872 28.6967 126.219 30.318 126.318 31.9182C126.361 32.615 126.32 33.3041 126.311 33.9994C126.306 34.3325 126.303 34.5969 126.365 34.9079C126.365 34.9079 126.392 35.1543 126.384 35.0475C126.412 35.0982 126.428 35.133 126.442 35.1609C126.476 35.1791 126.508 35.2024 126.542 35.2206C126.59 35.2495 126.822 35.38 126.916 35.4258C127.279 35.6101 127.64 35.7874 128.004 35.9546C128.88 36.3603 129.774 36.7373 130.632 37.1768C132.203 37.9793 133.722 38.9538 134.776 40.3935C135.848 41.863 136.362 43.5511 136.549 45.2929C136.856 45.041 137.274 44.9161 137.756 45.0628C140.111 45.7753 142.519 46.3058 144.641 47.6091C146.441 48.7258 148.088 50.3241 149.374 52.0043C151.772 55.1397 153.047 59.315 153.121 63.2209C153.209 67.5703 151.164 71.8595 148.943 75.4839C147.069 78.5366 144.37 81.0579 141.059 82.4962C139.374 83.2222 137.573 83.6923 135.754 83.942C133.346 84.272 130.962 84.6972 128.577 85.1567C124.17 86.0058 119.419 85.6563 115.406 87.9358C113.599 88.9638 112.056 90.4051 110.432 91.6842C108.646 93.089 106.673 94.2408 104.721 95.4123C100.773 97.7847 96.6939 99.9077 92.1326 100.845C89.9885 101.282 87.8194 101.469 85.642 101.646C83.3814 101.827 81.1192 102.077 78.8496 101.996C77.7113 101.957 76.597 101.788 75.4743 101.61C74.3067 101.428 73.1101 101.229 72.1355 100.516C71.2389 99.8609 70.6414 98.9276 69.9485 98.0809C69.2035 97.169 68.4902 96.2341 67.7997 95.2844C67.6376 95.058 67.4727 94.8075 67.3027 94.5551C67.2401 94.567 67.1795 94.5738 67.1206 94.5755C67.0567 94.5753 67.0052 94.5566 66.9483 94.5531C65.2204 97.4452 63.1639 100.137 61.4393 103.036C59.4767 106.333 58.1559 109.962 56.8377 113.552C54.1398 120.916 51.6396 128.393 49.3412 135.891C48.1897 139.663 47.148 143.469 46.4398 147.349C45.7247 151.233 45.1281 155.143 44.4783 159.04C43.1884 166.79 41.9312 174.546 40.9048 182.34C39.8994 189.98 39.2414 197.625 39.1004 205.337C38.9602 213.015 39.207 220.701 39.627 228.375C39.7389 230.418 39.8647 232.455 40.006 234.498C41.2744 228.103 42.8851 221.774 44.772 215.534C47.8024 205.497 51.5952 195.812 56.4775 186.524C61.3088 177.345 66.9502 168.61 73.0481 160.22C79.0729 151.919 85.5751 143.954 92.5439 136.418C96.0097 132.669 99.5301 128.946 103.401 125.605C107.015 122.487 110.817 119.415 114.848 116.847C115.024 116.732 115.203 116.624 115.38 116.504C115.886 115.915 116.432 115.357 117.044 114.876C117.627 114.424 118.464 114.429 119.008 114.95C119.587 115.501 119.583 116.216 119.222 116.887C118.78 117.701 118.049 118.336 117.238 118.9C116.23 120.15 115.406 121.582 114.52 122.881C112.986 125.128 111.453 127.375 109.977 129.655C107.058 134.156 104.247 138.744 101.529 143.365C98.8309 147.947 96.3049 152.633 94.2247 157.532C92.0661 162.599 90.6143 167.884 89.0934 173.166C87.5795 178.444 85.6853 183.585 83.7925 188.737C81.9939 193.647 80.2056 198.56 78.2135 203.394C76.2507 208.163 74.0753 212.86 71.5077 217.34C68.9271 221.855 65.8606 226.027 62.4391 229.941C59.0693 233.794 55.2418 237.209 52.0212 241.18C50.468 243.097 48.8555 245.032 46.808 246.452C45.8246 247.139 44.7812 247.734 43.8296 248.462C43.6833 248.576 43.5421 248.692 43.4024 248.82C43.3633 248.863 43.2445 248.982 43.2124 249.022C42.9135 249.363 42.6282 249.715 42.3241 250.055C42.1039 250.292 41.8655 250.563 41.6004 250.796C42.5352 257.999 43.8032 265.151 45.5728 272.219C49.3185 287.164 54.8797 301.679 60.2442 316.111C60.9265 317.946 61.6089 319.782 62.2912 321.618C62.9556 323.407 60.2462 324.677 59.5771 322.87C54.0833 308.073 48.437 293.296 44.0745 278.127C39.9535 263.813 37.9486 249.011 36.9898 234.197C36.1234 220.889 35.6036 207.476 36.6093 194.173C36.3434 193.88 36.1852 193.499 36.2589 193.105C36.4399 192.08 36.2658 191.087 36.0887 190.07C35.9098 189.059 35.7724 188.045 35.6126 187.028C35.2902 184.971 34.6673 182.973 33.9865 181.005C32.5511 176.84 30.131 173.206 27.6465 169.589C25.0688 165.828 22.6259 162.001 20.4747 157.98C18.3381 153.999 16.4308 149.899 14.672 145.744C11.2158 137.6 7.97061 129.244 5.87234 120.647C4.80528 116.27 4.21476 111.848 3.74645 107.377C3.25854 102.72 2.89198 98.0499 2.64307 93.3763C2.51975 91.0283 2.42579 88.6795 2.36643 86.3318C2.31051 84.0545 2.32891 81.7812 2.18476 79.5065C2.04289 77.2095 1.79881 74.9215 1.54258 72.6348C1.30637 70.5171 0.863219 68.376 0.798331 66.2514C0.77118 65.2544 0.90921 64.2195 1.36691 63.3298C1.75026 62.5804 2.82661 61.9101 3.62808 62.6348Z" fill="#454B4D"/>
</svg>
