<svg width="371" height="846" viewBox="0 0 371 846" fill="none" xmlns="http://www.w3.org/2000/svg">
<path d="M14.3425 270.886C13.2646 269.62 12.2907 267.888 12.0975 266.503C11.903 265.13 12.336 264.011 13.0981 263.252C13.194 263.212 13.6723 262.852 13.8308 262.759C13.8735 262.746 14.0014 262.679 14.08 262.639C14.2345 262.586 14.3917 262.519 14.5463 262.479C14.942 262.346 15.3457 262.253 15.7534 262.16C15.9918 262.12 16.2303 262.066 16.4701 262.026C16.5088 262.026 16.5168 262.026 16.5421 262.013C16.6087 262.013 16.674 262.013 16.7846 262C18.6818 261.84 20.5789 261.893 22.4748 262.066C33.1558 263.025 43.6677 266.143 53.3775 270.646C57.7674 272.684 62.0308 274.989 66.1649 277.507C63.3697 277.813 60.5852 278.293 57.8154 278.759C52.1051 279.732 46.3989 280.811 40.5967 281.037C30.7351 281.437 20.8134 278.519 14.3425 270.886ZM66.6552 26.5688C66.033 38.2391 64.4995 49.8294 63.2125 61.4331C60.6585 55.438 58.0112 49.4697 56.2846 43.1683C54.4566 36.5205 54.0596 30.0193 55.7503 23.2916C56.5124 20.2541 57.5516 17.2965 58.6854 14.3922C58.8333 14.0059 58.9825 13.6329 59.1383 13.2598C59.161 13.2066 59.4834 12.4739 59.5554 12.314C60.035 11.2882 60.5626 10.2624 61.1901 9.31651C61.3127 9.12999 61.4392 8.94359 61.5725 8.75707C61.6124 8.71711 61.6377 8.69026 61.707 8.61032C61.7896 8.51707 62.0414 8.23735 62.1946 8.06416C62.2613 7.99755 62.4131 7.9044 62.5384 7.83779C62.569 7.83779 62.597 7.85106 62.6263 7.85106C62.6663 7.91767 63.0833 8.21071 63.1352 8.264C63.3537 8.46383 64.0012 9.1965 63.9053 9.0766C64.6074 10.0092 65.0591 10.9551 65.3775 11.8477C67.0296 16.5372 66.919 21.6129 66.6552 26.5688ZM60.2055 147.908C59.6673 147.921 59.129 147.988 58.6187 148.148C58.5082 148.188 57.6981 148.534 57.3091 148.694C57.1945 148.627 56.7335 148.561 56.563 148.508C56.0221 148.334 55.4745 148.134 54.9496 147.921C52.0678 146.709 49.4072 144.857 46.6054 143.458C40.7606 140.554 35.0624 137.437 29.3761 134.226C23.9204 131.135 18.2528 128.111 13.3526 124.168C11.6419 122.795 10.0378 121.263 8.94532 119.358C7.86882 117.48 7.44647 115.348 7.11606 113.243C6.81496 111.312 6.6431 108.86 6.78033 106.676C6.84295 105.663 6.98283 104.824 7.28259 103.798C7.33722 103.611 7.62367 102.799 7.56106 102.932C7.66364 102.705 7.7902 102.479 7.91677 102.266C7.93942 102.226 8.52031 101.467 8.25784 101.76C8.64954 101.333 8.65353 101.333 8.98394 101.187C8.5163 101.4 9.51954 101.04 9.67808 101.014C9.68208 101.014 10.0924 100.974 10.6413 101C11.3514 101.013 11.4993 101.054 11.9576 101.147C14.1972 101.64 16.4382 102.519 18.3354 103.358C23.2755 105.53 28.1251 107.741 32.6536 110.712C37.3886 113.83 41.6719 117.573 45.4183 121.823C49.6018 126.566 52.7327 132.094 56.3032 137.277C57.2185 138.609 58.2004 139.901 59.2196 141.153C59.5367 141.54 59.8724 141.979 60.2255 142.419C60.2082 144.244 60.2109 146.083 60.2055 147.908ZM83.8725 104.344C90.089 94.0861 97.0796 84.0011 105.481 75.3949C107.853 72.9702 110.343 70.6522 112.937 68.4673C114.439 67.2017 115.28 66.1626 116.588 65.9361C116.996 68.2009 116.242 70.4124 115.822 72.7172C115.264 75.7813 114.265 78.6854 113.16 81.603C111.045 87.1717 107.765 92.3008 104.198 97.0568C96.5373 107.262 87.3964 116.587 78.1636 125.367C75.6855 127.725 73.1581 130.029 70.6028 132.307C74.0481 122.542 78.4953 113.217 83.8725 104.344ZM83.3382 262.986C84.1909 256.617 85.6231 250.303 87.5243 244.161C90.4141 234.822 94.4909 225.883 101.118 218.596C101.772 217.876 102.447 217.17 103.16 216.518C103.519 216.185 103.886 215.851 104.265 215.545C104.267 215.545 104.267 215.545 104.27 215.545C104.275 215.532 104.277 215.532 104.283 215.532C104.464 215.412 104.647 215.279 104.832 215.159C104.947 216.438 105.016 217.73 104.847 219.022C104.527 221.447 104.061 223.871 103.504 226.256C102.51 230.519 101.224 234.796 99.5417 238.832C97.8297 242.949 95.5034 246.666 93.1852 250.449C90.8324 254.286 88.7807 258.149 86.9634 262.266C85.7257 265.077 84.2442 267.635 82.6588 270.166C82.7587 267.795 83.0145 265.41 83.3382 262.986ZM125.295 160.351C121.401 150.732 118.239 140.301 117.921 129.87C117.831 126.939 117.622 123.995 117.605 121.064C117.596 119.412 118.006 117.946 118.719 116.561C119.027 116.614 118.661 116.467 119.105 116.707C119.546 116.947 119.653 117.093 119.753 117.187C120.886 118.252 121.966 120.544 122.853 122.129C125.199 126.353 126.426 130.855 127.69 135.478C130.358 145.217 131.093 155.275 130.792 165.347C130.721 167.758 130.584 170.156 130.418 172.567C128.755 168.478 126.954 164.441 125.295 160.351ZM142.527 180.934C146.004 177.137 149.787 173.593 153.525 170.05C159.928 163.988 167.974 158.366 177.107 158.1C179.365 158.033 181.571 158.259 183.759 158.819C184.453 159.005 185.139 159.219 185.816 159.445C186.145 159.565 186.473 159.685 186.797 159.818C186.827 159.831 186.923 159.871 187.006 159.898C187.202 159.991 187.399 160.085 187.592 160.178C188.298 160.524 188.976 160.91 189.63 161.35C189.678 161.377 189.688 161.39 189.712 161.403C189.838 161.51 189.962 161.617 190.086 161.723C190.205 161.83 190.31 161.95 190.422 162.069C190.447 162.096 190.444 162.096 190.46 162.11C190.467 162.123 190.471 162.123 190.478 162.136C190.451 162.189 190.427 162.229 190.394 162.283C190.318 162.376 189.904 162.815 189.556 163.148C186.349 166.173 182.08 168.025 178.09 169.77C173.701 171.702 169.409 173.78 165.055 175.778C159.771 178.203 154.257 179.961 148.577 181.187C146.046 181.733 143.501 182.213 140.96 182.719C141.473 182.119 141.994 181.52 142.527 180.934ZM153.696 79.5248C150.16 70.5989 146.777 61.7929 145.343 52.2675C145.169 51.1085 145.038 49.7763 145.061 48.4574C145.076 47.6847 145.093 47.3382 145.278 46.6854C145.411 46.2058 145.483 45.8063 146.028 45.4599C146.524 45.1402 147.636 45.7262 148.373 46.299C149.787 47.3781 151.042 48.8037 152.226 50.1359C157.347 55.8912 159.443 64.1508 160.701 71.558C162.192 80.3507 162.03 89.2767 161.528 98.1627C158.764 92.0078 156.171 85.7596 153.696 79.5248ZM175.551 104.864C178.967 102.359 182.63 100.214 186.397 98.2826C193.831 94.4591 201.821 91.8345 210.237 91.7279C212.558 91.7013 214.895 91.808 217.2 92.1011C218.142 92.221 219.072 92.4075 220.009 92.5541C220.61 92.6473 221.947 92.7138 222.237 92.8603C222.24 92.8603 222.695 93.2733 223.068 93.6729C221.949 94.9918 220.391 96.0043 218.852 96.737C215.096 98.5222 211.054 99.6814 207.017 100.641C202.752 101.666 198.43 102.719 194.084 103.318C189.024 104.024 183.908 104.211 178.837 104.824C177.558 104.97 176.29 105.117 175.026 105.25C175.2 105.13 175.373 104.984 175.551 104.864ZM207.199 30.2858C209.63 26.3824 212.676 23.0517 216.094 19.9876C217.922 18.3489 219.82 16.7904 221.756 15.285C222.103 15.0185 222.446 14.7386 222.791 14.4721C222.18 18.0691 221.039 21.5863 219.675 24.9834C217.814 29.6196 215.592 34.3624 212.734 38.479C210.174 42.1692 206.845 45.2734 203.452 48.1909C201.737 49.6564 200.017 51.1217 198.33 52.6271C200.537 44.9002 202.927 37.1467 207.199 30.2858ZM134.696 387.629C138.242 382.992 142.26 378.676 146.7 374.892C150.737 371.455 155.509 368.205 160.441 366.193C161.308 365.833 162.573 365.42 163.345 365.3C163.521 365.274 163.7 365.274 163.876 365.26C163.5 365.913 162.968 366.633 162.518 367.219C159.085 371.642 155.27 375.665 151.143 379.449C146.841 383.379 142.346 387.109 138.209 391.212C134.267 395.142 130.672 399.379 126.924 403.482C124.954 405.627 122.935 407.772 120.805 409.797C124.977 402.11 129.381 394.556 134.696 387.629ZM134.729 574.74C135.321 577.244 135.915 579.736 136.513 582.227C135.295 582.453 134.067 582.6 132.796 582.413C129.693 581.974 126.673 580.801 123.722 579.789C116.446 577.271 109.134 574.833 102.042 571.822C89.211 566.4 75.4524 558.913 68.0621 546.603C67.5265 545.71 67.0269 544.791 66.5659 543.859C66.3048 543.339 66.0556 542.793 65.8238 542.26C65.8132 542.207 65.4548 541.274 65.3815 541.061C65.1537 540.382 64.9512 539.702 64.8033 539.023C64.7766 538.889 64.7553 538.77 64.7313 538.636C64.734 538.583 64.7034 538.29 64.6874 538.117C68.7482 538.73 72.8131 539.169 76.9099 539.542C81.1319 539.915 85.0089 541.287 88.9246 542.819C96.7465 545.857 103.717 550.613 110.48 555.502C114.017 558.073 117.497 560.711 121.122 563.149C124.521 565.427 128.093 567.945 130.985 570.863C131.778 571.649 132.33 572.675 133.157 573.461C133.646 573.927 134.181 574.34 134.729 574.74ZM147.098 574.74C149.037 573.701 151.163 572.981 153.189 572.142C157.289 570.45 161.248 568.518 165.26 566.64C168.608 565.068 171.915 563.496 174.815 561.178C178.823 557.954 180.99 552.864 182.845 548.215C182.894 548.082 182.941 547.962 182.992 547.829C182.413 571.103 182.327 594.377 181.78 617.637C181.24 640.672 180.396 663.692 179.739 686.726C179.492 695.373 179.27 704.032 179.1 712.705C173.664 696.585 168.89 680.265 164.519 663.799C157.842 638.647 151.87 613.308 145.638 588.035C145.581 587.809 145.527 587.582 145.471 587.356C145.951 586.703 146.252 585.917 146.252 585.158C146.252 583.612 145.378 582.52 144.159 581.947C143.742 580.242 143.329 578.537 142.916 576.831C144.395 576.325 145.722 575.459 147.098 574.74ZM162.505 542.007C165.076 538.583 168.022 535.266 171.077 532.242C172.277 531.056 173.689 529.844 175.099 529.484C175.912 529.271 175.724 529.364 176.708 529.551C176.763 529.564 176.794 529.564 176.826 529.564C176.851 529.577 176.867 529.59 176.908 529.617C177.101 529.737 177.492 530.017 177.514 530.004C177.625 530.11 177.736 530.23 177.857 530.31C177.881 530.337 177.89 530.337 177.909 530.35C177.915 530.363 177.915 530.363 177.925 530.39C178.043 530.63 178.199 530.883 178.339 531.123C178.379 531.229 178.42 531.336 178.45 531.442C178.538 531.762 178.608 532.068 178.69 532.388C178.714 532.481 178.726 532.575 178.741 532.668C178.795 533.361 178.828 534.053 178.807 534.759C178.787 535.426 178.728 536.092 178.646 536.758C178.622 536.904 178.575 537.211 178.555 537.317C178.474 537.784 178.382 538.237 178.281 538.703C177.931 540.302 177.476 541.874 176.952 543.419C176.719 544.112 176.474 544.791 176.215 545.471C176.068 545.857 175.914 546.243 175.758 546.616C175.754 546.63 175.708 546.75 175.671 546.83C175.619 546.949 175.529 547.163 175.515 547.189C174.938 548.495 174.333 549.774 173.661 551.026C173.143 551.985 172.589 552.918 171.979 553.824C171.939 553.877 171.915 553.917 171.895 553.957C171.881 553.97 171.873 553.97 171.854 553.997C171.506 554.397 171.147 554.783 170.758 555.156C170.118 555.755 169.427 556.248 168.685 556.728C166.642 558.034 164.434 559.059 162.24 560.072C159.832 561.204 157.478 562.43 155.053 563.509C152.864 564.495 150.639 565.387 148.42 566.293C152.618 557.927 156.873 549.534 162.505 542.007ZM180.769 493.314C178.96 491.849 177.401 490.197 175.921 488.411C172.909 484.774 170.396 480.711 168.08 476.608C165.544 472.118 163.633 467.336 161.487 462.66C159.395 458.09 157.282 453.614 156.018 448.724C155.337 446.1 154.895 443.449 154.941 440.718C154.957 439.772 155.069 438.853 155.218 437.933C158.22 440.545 160.747 443.702 162.988 446.979C166.251 451.735 169.137 456.758 171.56 461.993C176.321 472.292 179.276 483.336 181.978 494.313C181.582 493.967 181.178 493.634 180.769 493.314ZM192.576 494.593C195.973 490.263 199.393 485.933 203.116 481.87C208.668 475.795 214.724 470.12 221.292 465.164C231.91 457.144 243.871 450.696 256.684 446.979C257.952 446.606 259.234 446.273 260.529 446.007C261.167 445.873 261.812 445.767 262.458 445.674C262.58 445.66 262.75 445.634 262.823 445.634C263.2 445.607 263.573 445.567 263.951 445.567C264.196 445.554 265.273 445.647 265.314 445.607C265.486 445.647 265.658 445.687 265.827 445.727C265.865 445.754 265.9 445.767 265.94 445.793C265.968 445.833 265.998 445.887 266.047 445.967C266.064 445.993 266.076 446.033 266.088 446.073C266.088 446.033 266.087 446.02 266.087 445.98C266.087 446.007 266.088 446.047 266.09 446.073C266.152 446.3 266.122 446.606 266.1 446.42C266.103 446.486 266.111 446.553 266.106 446.619C266.102 446.699 266.096 446.779 266.092 446.859C266.096 446.753 266.056 447.259 266.014 447.419C265.881 447.898 265.761 448.378 265.597 448.858C265.519 449.084 265.432 449.297 265.344 449.524C265.301 449.59 264.983 450.296 264.936 450.376C264.356 451.535 263.69 452.655 262.981 453.734C262.651 454.24 262.309 454.746 261.958 455.239C261.75 455.532 261.537 455.825 261.323 456.118C261.269 456.185 260.814 456.798 260.73 456.904C253.264 466.523 244.312 475.276 233.927 481.67C221.464 489.344 207.085 493.727 192.504 495.099C192.528 494.939 192.552 494.766 192.576 494.593ZM213.301 348.581C210.535 343.332 208.183 338.11 206.42 332.421C202.821 320.831 198.874 308.961 198.181 296.744C198.008 293.667 198.063 290.576 198.341 287.512C198.422 286.619 198.201 285.194 198.381 284.647C198.398 284.594 198.507 284.461 198.541 284.408C198.67 284.328 199.184 283.968 199.068 284.008C199.888 283.648 199.989 283.768 200.94 284.075C201.777 284.328 202.563 284.821 203.36 285.38C204.847 286.406 206.159 287.765 207.331 289.15C213.46 296.371 215.025 306.922 216.292 315.968C218.186 329.517 218.537 343.225 217.615 356.854C217.518 356.681 217.411 356.508 217.317 356.321C215.978 353.737 214.656 351.152 213.301 348.581ZM233.443 350.686C238.652 345.77 244.272 341.107 250.315 337.257C260.453 330.796 271.954 327.266 283.699 325.094C284.581 324.921 285.467 324.774 286.354 324.641C286.716 324.574 287.079 324.534 287.442 324.481C287.518 324.468 288.367 324.361 288.576 324.334C290.505 324.135 292.453 324.001 294.394 324.081C294.867 324.095 295.338 324.148 295.809 324.175C295.813 324.175 295.815 324.175 295.817 324.175C295.974 324.201 296.132 324.228 296.288 324.255C296.651 324.335 297.014 324.414 297.371 324.521C297.501 324.561 297.641 324.614 297.776 324.654C297.897 324.748 298.062 324.894 298.186 325.001C298.182 324.961 298.183 324.934 298.193 324.894C298.153 324.854 298.118 324.814 298.06 324.747C298.101 324.787 298.151 324.841 298.201 324.881C298.207 324.867 298.213 324.854 298.222 324.854C298.233 324.881 298.246 324.907 298.263 324.934C298.27 324.947 298.278 324.947 298.285 324.961C298.286 324.961 298.29 324.974 298.291 324.987C298.297 325.001 298.299 325.001 298.305 325.014C298.305 325.027 298.303 325.027 298.303 325.041C298.302 325.027 298.299 325.027 298.298 325.027C298.299 325.041 298.301 325.041 298.302 325.054C298.302 325.067 298.301 325.067 298.299 325.08C298.305 325.094 298.307 325.094 298.311 325.094C298.329 325.187 298.349 325.267 298.362 325.28C298.33 325.254 298.313 325.227 298.291 325.2C298.263 325.4 298.258 325.48 298.262 325.507C298.242 325.574 298.223 325.627 298.191 325.733C298.025 326.266 297.942 326.519 297.672 326.999C297.012 328.171 296.088 329.104 295.07 329.996C292.814 331.955 290.063 333.42 287.47 334.886C280.818 338.629 273.865 341.947 266.691 344.571C258.418 347.608 249.87 349.78 241.329 351.885C237.293 352.884 233.247 353.857 229.234 354.949C230.593 353.444 232.02 352.032 233.443 350.686ZM272.093 195.375C271.66 190.286 271.212 185.197 271.647 180.095C272.006 175.858 272.987 170.716 275.67 167.265C275.757 167.145 275.898 167.012 276.026 166.892C276.256 167.265 276.752 167.758 276.955 168.091C278.034 169.85 278.74 171.728 279.238 173.726C280.277 177.883 280.333 182.213 280.275 186.489C280.209 191.339 280.208 196.188 280.136 201.037C280.044 207.272 279.856 213.613 278.838 219.768C278.262 223.272 277.538 226.749 276.703 230.199C276.584 229.613 276.458 229.04 276.34 228.468C275.257 223.125 274.423 217.73 273.772 212.321C273.092 206.686 272.575 201.024 272.093 195.375ZM325.561 164.134C327.879 159.685 330.797 155.621 333.898 151.691C337.133 147.575 340.536 143.605 344.26 139.928C347.634 136.611 351.28 133.227 355.442 130.895C357.171 129.936 359.079 129.217 361.079 129.19C362.021 129.164 362.789 129.217 363.655 129.51C363.685 129.523 363.734 129.55 363.769 129.563C363.782 129.59 363.795 129.603 363.809 129.63C363.809 129.723 363.807 129.816 363.805 129.923C363.783 129.95 363.715 130.416 363.658 130.616C363.565 130.949 363.447 131.268 363.321 131.602C363.273 131.668 363.014 132.228 362.961 132.334C362.792 132.654 362.612 132.974 362.426 133.293C361.991 134.026 361.516 134.732 361.017 135.425C355.011 143.765 348.105 152.238 339.737 158.299C334.939 161.763 329.796 164.734 325.157 168.424C324.287 169.117 323.451 169.85 322.62 170.582C323.526 168.398 324.47 166.226 325.561 164.134ZM299.337 232.224C304.003 228.88 308.908 225.843 313.915 223.046C318.745 220.354 323.806 217.317 329.257 216.118C331.467 215.638 333.508 215.332 335.582 216.145C336.915 216.677 338.122 217.663 338.462 218.862C338.885 220.381 338.235 221.766 337.288 223.219C336.214 224.871 334.687 226.256 333.172 227.509C325.574 233.77 315.75 236.621 306.352 238.859C300.546 240.258 294.686 241.43 288.941 243.069C287.873 243.375 286.819 243.708 285.772 244.055C289.887 239.698 294.416 235.741 299.337 232.224ZM100.165 420.495C97.5712 419.522 95.0012 418.483 92.4511 417.404C86.9288 415.072 81.453 412.608 76.0306 410.05C71.4195 407.865 66.855 405.587 62.3145 403.269C58.3137 401.217 54.2408 399.072 50.6862 396.301C48.7437 394.783 47.1397 393.037 45.6981 391.292C44.4071 389.747 44.2965 388.335 44.7948 386.669C45.5542 386.043 46.3336 385.404 47.153 384.991C48.3321 384.378 50.1107 384.365 51.4177 384.325C54.4113 384.258 57.1639 384.951 59.9524 385.99C65.3469 387.988 70.0699 390.892 74.8715 394.01C83.8125 399.832 91.8729 407.106 97.851 415.992C98.9168 417.577 99.9747 419.136 100.937 420.774C100.679 420.681 100.42 420.588 100.165 420.495ZM47.129 287.672C52.0159 287.086 56.8561 286.193 61.715 285.42C64.0639 285.047 66.422 284.661 68.8028 284.568C71.4781 284.461 74.156 284.634 76.8326 284.647C77.0245 284.647 77.1977 284.621 77.3749 284.608C78.0037 286.06 79.308 286.699 80.6243 286.686C81.537 289.67 82.4456 292.641 83.3289 295.625C87.8267 310.826 91.4426 326.306 94.9412 341.76C95.8179 345.637 96.6785 349.513 97.5299 353.39C97.767 354.469 98.4145 355.109 99.1913 355.389C99.6043 374.533 101.789 393.664 104.377 412.621C101.092 407.798 97.4273 403.282 93.2279 399.232C88.9472 395.102 84.2082 391.425 79.2494 388.148C74.0295 384.698 68.8415 381.594 62.974 379.329C59.8018 378.117 56.631 377.224 53.2163 377.037C50.084 376.864 45.6675 376.984 43.1001 378.942C41.8211 379.928 40.277 380.847 39.1392 381.98C37.8935 383.232 37.4951 385.55 37.318 387.229C37.0049 390.186 38.0201 393.077 39.8093 395.409C46.2723 403.828 56.2353 408.331 65.5321 412.981C72.3334 416.378 79.2481 419.549 86.22 422.586C89.716 424.105 93.2292 425.597 96.7851 426.969C98.2453 427.529 100.017 428.102 101.295 428.661C102.398 429.127 103.452 429.647 104.578 429.927C105.128 431.032 105.858 432.032 106.747 432.911C106.937 433.097 107.146 433.257 107.364 433.391C110.403 453.627 113.808 473.837 117.494 493.953C121.674 516.734 126.522 539.409 131.742 562.003C129.891 560.511 128.005 559.059 126.053 557.7C120.191 553.61 114.501 549.281 108.593 545.271C105.708 543.312 102.754 541.447 99.6829 539.782C96.4814 538.063 93.1426 536.731 89.7906 535.346C86.2093 533.854 82.5162 532.921 78.6699 532.428C75.0194 531.962 71.3515 531.789 67.7037 531.256C65.7212 530.949 63.5256 530.19 61.6124 531.003C60.2881 531.549 59.1423 532.455 58.4096 533.72C57.0666 536.012 57.2345 538.796 57.834 541.301C58.9159 545.804 61.4152 550.187 64.1558 553.877C72.7198 565.387 85.7044 572.768 98.6876 578.283C106.252 581.494 114.013 584.158 121.776 586.836C125.069 587.982 128.354 589.128 131.819 589.607C133.783 589.874 135.626 589.874 137.584 589.514C137.808 589.461 138.02 589.421 138.237 589.367C142.985 608.925 147.921 628.442 152.852 647.932C159.259 673.244 166.079 698.49 174.899 723.083C176.165 726.613 177.475 730.13 178.807 733.634C178.555 764.329 179.206 795.036 181.931 825.638C182.451 831.473 183.051 837.308 183.724 843.13C184.119 846.54 189.521 846.58 189.125 843.13C185.486 811.356 184.281 779.423 184.247 747.476C190.467 762.797 197.231 777.904 204.366 792.812C207.118 798.567 209.929 804.295 212.776 809.997C214.879 814.207 221.193 810.517 219.094 806.307C207.778 783.633 197.111 760.612 187.894 736.991C186.687 733.901 185.515 730.797 184.368 727.679C184.461 720.125 184.601 712.572 184.779 705.018C185.871 659.056 187.468 613.134 188.234 567.159C188.594 545.564 189.012 523.982 191.553 502.52C206.244 501.334 220.87 497.324 233.74 490.25C245.924 483.562 256.167 474.05 264.913 463.326C268.621 458.769 272.878 453.361 273.384 447.286C273.624 444.395 272.529 441.344 270.063 439.679C267.834 438.173 264.912 438.08 262.325 438.373C257.259 438.933 252.438 440.558 247.688 442.33C239.476 445.394 231.646 449.284 224.315 454.107C215.983 459.582 208.265 466.017 201.296 473.144C199.02 475.475 196.867 477.9 194.772 480.378C197.548 464.005 201.075 447.752 204.961 431.619C210.329 409.331 216.596 387.256 223.954 365.554C226.021 364.448 227.883 362.942 230.146 362.263C234.166 361.064 238.305 360.171 242.377 359.172C250.522 357.147 258.674 355.109 266.604 352.351C274.706 349.527 282.588 345.93 290.095 341.787C295.921 338.563 303.406 334.646 305.239 327.665C306.496 322.882 303.954 318.872 299.313 317.474C295.085 316.208 290.355 316.767 286.062 317.354C274.374 318.952 262.711 322.256 252.236 327.718C245.103 331.435 238.642 336.378 232.574 341.653C236.783 330.676 241.294 319.805 246.155 309.08C254.078 291.602 262.847 274.469 272.2 257.697C273.449 258.136 274.953 257.897 275.886 256.484C275.985 256.338 276.093 256.191 276.193 256.045C278.039 255.339 279.82 254.339 281.566 253.527C284.254 252.274 286.959 251.235 289.805 250.383C295.526 248.677 301.374 247.465 307.178 246.08C318.192 243.468 329.119 239.951 337.985 232.638C341.82 229.48 345.655 224.937 345.475 219.662C345.286 214.12 340.74 210.176 335.513 209.23C329.418 208.111 323.247 210.909 317.941 213.573C312.087 216.491 306.465 219.821 300.992 223.405C295.423 227.055 290.144 231.119 285.26 235.648C294.053 221.767 303.529 208.364 312.722 194.696C315.485 190.579 318.068 186.383 320.539 182.093C321.027 181.667 321.504 181.227 321.973 180.854C324.238 179.015 326.332 176.991 328.531 175.085C332.831 171.342 337.825 168.531 342.468 165.254C352.3 158.313 360.142 148.92 367.139 139.222C369.387 136.104 371.634 132.068 370.835 128.084C369.833 123.102 364.214 121.596 359.782 122.023C354.031 122.569 349.437 125.833 345.087 129.377C340.652 133 336.631 137.09 332.906 141.433C328.689 146.349 324.532 151.478 321.171 157.034C317.587 162.949 315.363 169.503 312.659 175.831C312.086 177.177 312.07 178.669 312.847 179.801C312.836 179.828 312.823 179.855 312.812 179.881C312.752 180.015 312.602 180.281 312.532 180.401C311.934 181.493 311.939 182.879 312.532 183.865C303.005 198.039 293.171 212.055 284.042 226.483C285.609 218.862 286.513 211.135 286.74 203.262C286.895 197.92 286.842 192.577 286.948 187.222C287.049 182.199 286.947 177.097 285.773 172.181C284.731 167.825 282.25 161.03 277.274 159.978C271.604 158.766 268.513 165.68 266.952 169.903C262.917 180.787 264.772 193.204 265.818 204.474C266.459 211.375 267.269 218.289 268.416 225.124C268.993 228.561 269.706 231.971 270.402 235.395C270.747 237.074 271.086 238.766 271.432 240.444C271.72 241.857 272.469 243.415 272.459 244.814C272.458 245.094 272.486 245.334 272.53 245.573C263.701 260.854 255.474 276.534 247.831 292.414C239.502 309.707 232.056 327.425 225.376 345.424C225.495 335.485 224.903 325.547 223.571 315.662C222.097 304.724 219.928 293.174 212.551 284.514C209.487 280.917 205.033 277.201 200.084 277.067C197.523 277.001 194.857 278.16 193.23 280.145C192.23 281.37 191.706 282.756 191.536 284.314C191.47 284.901 191.453 285.474 191.508 286.06C191.594 287.006 191.433 287.805 191.354 288.777C190.239 302.579 194.063 316.248 198.04 329.317C200.25 336.578 202.602 343.545 206.09 350.313C207.751 353.524 209.411 356.748 211.07 359.971C212.605 362.956 214.298 366.286 216.984 368.351C217.077 368.431 217.18 368.458 217.276 368.511C212.285 383.579 207.786 398.806 203.729 414.126C197.988 435.828 192.937 457.757 189.153 479.885C188.7 482.536 188.281 485.187 187.885 487.839C183.129 469.481 176.788 451.003 164.142 436.548C162.494 434.669 160.7 432.911 158.733 431.366C157.706 430.553 156.601 429.554 155.384 429.061C153.634 428.355 151.818 429.114 150.518 430.366C148.807 432.005 148.358 434.483 148.004 436.721C147.516 439.812 147.575 442.823 148.012 445.913C148.793 451.429 150.747 456.638 153.009 461.7C155.282 466.776 157.479 471.945 159.959 476.928C162.61 482.257 165.844 487.346 169.502 492.035C171.21 494.22 173.013 496.391 175.172 498.137C176.138 498.936 177.296 499.682 178.079 500.668C179.08 501.92 179.742 503.093 181.113 504.025C182.336 504.851 184.578 504.625 185.546 503.452C185.672 503.292 185.796 503.146 185.921 502.986C185.049 510.793 184.398 518.613 183.912 526.446C183.623 526.02 183.309 525.607 182.942 525.234C180.605 522.783 177.077 521.77 173.783 522.396C169.823 523.169 166.712 526.233 164.1 529.098C161.05 532.455 158.07 535.812 155.402 539.489C149.741 547.282 145.469 555.942 141.144 564.521C140.33 566.133 140.631 568.105 142.053 569.224C141.765 569.384 141.473 569.531 141.177 569.677C136.56 550.347 132.196 530.949 128.289 511.472C123.134 485.76 118.905 459.849 114.851 433.95C114.354 430.766 113.863 427.595 113.383 424.398C113.419 424.371 113.46 424.331 113.519 424.265C113.222 424.545 113.7 424.145 113.737 424.118C113.97 423.958 114.224 423.812 114.467 423.665C115.785 422.879 117.093 422.093 118.35 421.214C123.318 417.737 127.645 413.5 131.738 409.037C135.744 404.681 139.559 400.138 143.785 395.995C148.348 391.505 153.315 387.469 157.968 383.086C162.174 379.129 166.269 374.759 169.527 369.963C171.205 367.499 172.564 364.128 171.049 361.251C169.715 358.719 166.78 357.853 164.098 357.933C158.321 358.106 152.667 361.69 147.992 364.808C142.543 368.445 137.664 372.921 133.341 377.823C124.421 387.948 117.861 399.752 111.536 411.595C108.978 393.131 106.985 374.573 106.5 355.962C105.161 304.511 119.264 253.487 133.533 204.501C134.878 199.878 136.284 195.295 137.721 190.712C138.831 190.526 139.938 190.339 141.008 190.126C144.176 189.487 147.357 188.901 150.517 188.221C156.551 186.916 162.33 184.957 167.959 182.426C172.897 180.214 177.769 177.856 182.714 175.658C187.335 173.593 192.488 171.142 195.79 167.172C197.451 165.174 198.292 162.696 197.536 160.124C196.89 157.94 195.139 156.301 193.312 155.049C189.601 152.517 184.885 151.345 180.473 150.919C169.15 149.826 158.704 155.755 150.479 162.975C148.773 164.468 147.087 166.026 145.419 167.598C149.593 155.808 154.095 144.138 158.954 132.574C161.681 126.073 164.482 119.612 167.417 113.204C171.239 113.044 174.992 112.591 178.837 112.124C184.024 111.498 189.249 111.245 194.431 110.566C199.512 109.9 204.543 108.74 209.52 107.528C214.166 106.396 218.976 104.97 223.198 102.665C227.008 100.587 232.614 95.9245 230.018 91.0353C229.11 89.33 227.61 87.5714 225.9 86.5989C223.784 85.3999 221.149 85.3733 218.794 85.0535C208.339 83.6147 198.172 85.2401 188.495 89.3567C184.141 91.2085 179.87 93.4067 175.862 95.9512C180.685 86.9854 186.153 78.579 191.878 70.1193C193.02 68.4274 194.12 66.6821 195.081 64.8836C195.323 64.8036 195.566 64.6971 195.8 64.5505C198.437 62.8586 200.543 60.4606 202.844 58.3557C204.855 56.5172 206.956 54.7854 209.013 53.0002C212.88 49.6563 216.44 45.9928 219.307 41.7297C222.421 37.1068 224.74 31.8045 226.786 26.6354C228.965 21.1333 230.469 15.3116 230.511 9.35658C230.521 7.67797 229.362 6.39888 227.853 5.86599C224.918 4.84018 222.136 5.83945 219.771 7.63795C217.533 9.3432 215.308 11.0751 213.155 12.887C208.95 16.4174 205.133 20.294 202.026 24.8369C196.244 33.2966 193.353 43.3282 190.591 53.0801C190.265 54.2391 190.48 55.2249 190.999 55.9709C189.757 60.5271 186.874 64.5905 184.196 68.4007C181.036 72.8903 177.969 77.3799 175.171 82.1226C172.805 86.1326 170.569 90.2091 168.432 94.339C168.808 86.5855 168.785 78.8186 167.574 71.0917C166.171 62.1791 163.375 52.9337 157.379 45.9928C154.674 42.8487 150.979 38.8918 146.496 38.9851C141.745 39.0783 139.328 43.2616 138.971 47.498C138.826 49.2433 139.027 50.9886 139.251 52.7205C139.571 55.1851 139.721 56.6639 140.225 59.2484C141.301 64.7772 143.22 70.0793 145.15 75.3415C147.337 81.3099 149.615 87.2384 152.048 93.1135C154.567 99.1884 156.978 105.383 159.8 111.325C159.872 111.485 159.972 111.605 160.068 111.738C159.539 112.91 159.011 114.083 158.491 115.269C151.056 132.055 144.184 149.054 138.068 166.333C138.273 160.617 138.188 154.889 137.596 149.187C136.995 143.378 135.96 137.623 134.317 132.028C132.769 126.739 131.18 121.69 128.295 116.934C126.978 114.776 125.825 112.591 123.747 111.045C121.986 109.726 119.759 109.074 117.564 109.154C115.698 109.22 114.483 109.753 113.384 111.258C112.53 112.431 111.899 113.71 111.371 115.069C110.415 117.52 110.267 120.104 110.419 122.702C110.584 125.5 110.521 128.298 110.686 131.095C110.857 134.039 111.259 136.97 111.744 139.861C112.683 145.47 114.157 150.985 116.024 156.341C118.098 162.309 120.748 168.038 123.143 173.873C124.902 178.163 126.312 182.533 127.652 186.942C127.569 187.129 127.492 187.329 127.432 187.542C127 189.074 127.742 190.699 128.977 191.578C129.067 191.978 129.204 192.391 129.385 192.79C122.497 215.292 116.397 238.073 111.002 260.961C105.32 285.074 100.865 309.6 99.5217 334.366C97.434 325.107 95.261 315.875 92.9494 306.669C90.6685 297.583 87.98 288.631 85.3287 279.652C85.3886 279.545 85.4486 279.425 85.5099 279.319C86.9421 276.627 88.9605 274.27 90.4834 271.632C92.0421 268.927 93.1932 266.023 94.4683 263.185C95.8019 260.201 97.4513 257.43 99.142 254.633C102.403 249.264 105.444 244.001 107.566 238.046C109.726 231.985 111.201 225.75 112.019 219.368C112.228 217.73 112.123 216.251 111.979 214.612C111.844 213.067 111.792 211.588 110.907 210.269C109.702 208.458 107.791 207.339 105.592 207.418C101.877 207.552 98.7196 210.589 96.3361 213.147C89.7106 220.261 85.2301 228.761 82.0233 237.873C80.3552 242.629 79.0176 247.492 77.9717 252.408C75.4803 241.27 73.6764 230 72.1669 218.689C70.1458 203.528 68.4791 188.328 67.765 173.034C67.332 163.761 67.2334 154.476 67.3 145.19C68.7389 144.697 70.0459 143.672 71.133 142.379C75.2019 137.583 80.1061 133.627 84.6346 129.27C89.3735 124.701 93.962 119.971 98.3839 115.095C106.868 105.743 115.265 95.9379 119.91 84.0411C121.07 81.0702 122.113 78.0594 122.706 74.9153C123.338 71.5715 124.28 68.4006 123.715 64.9635C123.455 63.3781 122.934 61.2334 121.771 60.061C120.584 58.8753 118.331 58.6355 116.728 58.6622C113.612 58.7288 110.973 60.1941 108.808 62.3524C106.631 64.5239 104.175 66.4423 101.97 68.6005C99.7535 70.7587 97.6325 73.0369 95.6167 75.3949C91.2547 80.484 87.2485 85.9327 83.4715 91.4747C77.4095 100.374 72.1176 109.713 67.8049 119.545C67.9608 114.176 68.126 108.794 68.2419 103.425C68.3259 99.5482 68.4298 95.6713 68.7416 91.8078C69.032 88.2108 70.0539 84.6139 69.7741 80.9902C69.6835 79.8312 69.4757 78.6854 69.2039 77.5397C69.5956 76.6605 69.6835 75.7012 69.3291 74.8219C69.866 68.4006 70.4123 61.9926 71.1157 55.5713C71.9657 47.8444 72.8064 40.1176 73.4273 32.364C73.8416 27.195 74.252 21.9593 73.6631 16.777C73.0436 11.3282 71.4381 5.01331 66.4673 1.88258C61.3873 -1.32808 56.6669 2.56212 54.2062 6.98511C51.4643 11.9143 49.5098 17.7227 48.3227 23.1982C46.7226 30.5787 47.2622 37.8527 49.2553 45.1133C51.1086 51.8544 53.9864 58.2625 56.7269 64.6705C58.0659 67.8145 59.3688 70.9719 60.5013 74.1959C60.9796 75.5548 61.4499 76.9003 61.8189 78.2592C61.8189 78.5123 61.8056 78.7653 61.8096 79.0184C61.8136 79.6846 62.0214 80.3108 62.3572 80.857C62.4877 81.8295 62.5424 82.8155 62.4638 83.828C62.1573 87.758 61.4379 91.6214 61.2447 95.5648C61.0502 99.5482 61.0129 103.545 60.9276 107.528C60.7664 115.108 60.5666 122.676 60.4134 130.256C58.9372 127.991 57.421 125.753 55.8675 123.528C52.301 118.426 48.2921 113.776 43.5091 109.753C38.9007 105.89 33.8633 102.546 28.4502 99.9211C27.0433 99.2284 25.6084 98.6157 24.1655 98.0162C23.951 97.9229 23.7365 97.8297 23.5233 97.7497C23.4634 97.7231 23.3848 97.6831 23.2595 97.6298C22.7133 97.4033 22.1684 97.1634 21.6208 96.9236C19.2387 95.9111 16.8299 94.872 14.2918 94.3125C11.7205 93.753 8.96663 93.5663 6.49388 94.6055C3.9745 95.6713 2.31313 97.8163 1.30058 100.294C-0.567301 104.877 -0.0903434 110.246 0.678393 115.015C1.49909 120.118 3.68939 124.527 7.54507 128.031C12.2254 132.268 17.8344 135.545 23.2649 138.716C29.6786 142.459 36.1109 146.109 42.7311 149.48C46.0352 151.172 49.1621 153.304 52.5954 154.702C53.9864 155.275 55.3706 155.821 56.8801 155.954C57.7474 156.034 58.6028 155.941 59.4301 155.661C59.6793 155.582 59.9471 155.475 60.2069 155.355C60.2082 155.595 60.2042 155.821 60.2069 156.061C60.3601 171.888 61.3939 187.688 63.2472 203.395C65.0857 218.996 67.1588 234.609 70.4376 249.97C71.8431 256.564 73.5791 263.052 75.447 269.513C75.3591 271.299 75.3484 273.084 75.4604 274.842C75.463 274.896 75.471 274.949 75.475 274.989C75.0447 274.656 74.6303 274.323 74.0814 273.91C72.7305 272.897 71.2663 272.045 69.8234 271.165C66.0317 268.861 62.1294 266.729 58.1205 264.824C50.1653 261.041 41.8158 258.03 33.1665 256.298C27.1658 255.099 20.4537 253.873 14.3464 255.019C11.1902 255.605 8.18857 257.244 6.46057 260.015C4.67929 262.879 4.50342 266.662 5.63721 269.78C7.88613 275.988 13.7522 280.731 19.3985 283.781C27.9372 288.378 37.687 288.817 47.129 287.672Z" fill="#454B4D"/>
</svg>
