<svg width="97" height="77" viewBox="0 0 97 77" fill="none" xmlns="http://www.w3.org/2000/svg">
<path d="M20.3281 33L16.373 27.7485L20.3281 22.4971H21.5L17.4644 27.7485L21.5 33H20.3281ZM15.2012 33V22.4971H16.146V33H15.2012ZM28.7656 30.5684C28.7656 30.9248 28.6973 31.2593 28.5605 31.5718C28.4287 31.8843 28.2456 32.1577 28.0112 32.3921C27.7769 32.6265 27.5034 32.812 27.1909 32.9487C26.8784 33.0806 26.5439 33.1465 26.1875 33.1465H25.4404C25.084 33.1465 24.7471 33.0806 24.4297 32.9487C24.1172 32.812 23.8438 32.6265 23.6094 32.3921C23.375 32.1577 23.1895 31.8843 23.0527 31.5718C22.9209 31.2593 22.855 30.9248 22.855 30.5684V24.9287C22.855 24.5723 22.9209 24.2378 23.0527 23.9253C23.1895 23.6128 23.375 23.3394 23.6094 23.105C23.8438 22.8706 24.1172 22.6875 24.4297 22.5557C24.7471 22.4189 25.084 22.3506 25.4404 22.3506H26.1875C26.5439 22.3506 26.8784 22.4189 27.1909 22.5557C27.5034 22.6875 27.7769 22.8706 28.0112 23.105C28.2456 23.3394 28.4287 23.6128 28.5605 23.9253C28.6973 24.2378 28.7656 24.5723 28.7656 24.9287V30.5684ZM27.8208 24.9287C27.8208 24.6943 27.7769 24.4771 27.689 24.2769C27.6011 24.0718 27.4814 23.8936 27.3301 23.7422C27.1787 23.5908 27.0005 23.4712 26.7954 23.3833C26.5952 23.2954 26.3779 23.2515 26.1436 23.2515H25.4844C25.25 23.2515 25.0303 23.2954 24.8252 23.3833C24.625 23.4712 24.4468 23.5908 24.2905 23.7422C24.1392 23.8936 24.0195 24.0718 23.9316 24.2769C23.8438 24.4771 23.7998 24.6943 23.7998 24.9287V30.5684C23.7998 30.8027 23.8438 31.0225 23.9316 31.2275C24.0195 31.4277 24.1392 31.606 24.2905 31.7622C24.4468 31.9136 24.625 32.0332 24.8252 32.1211C25.0303 32.209 25.25 32.2529 25.4844 32.2529H26.1436C26.3779 32.2529 26.5952 32.209 26.7954 32.1211C27.0005 32.0332 27.1787 31.9136 27.3301 31.7622C27.4814 31.606 27.6011 31.4277 27.689 31.2275C27.7769 31.0225 27.8208 30.8027 27.8208 30.5684V24.9287ZM30.8677 33V22.4971H31.8125V32.0991H35.8335V33H30.8677ZM43.0918 30.5684C43.0918 30.9248 43.0234 31.2593 42.8867 31.5718C42.7549 31.8843 42.5718 32.1577 42.3374 32.3921C42.103 32.6265 41.8296 32.812 41.5171 32.9487C41.2046 33.0806 40.8701 33.1465 40.5137 33.1465H39.7666C39.4102 33.1465 39.0732 33.0806 38.7559 32.9487C38.4434 32.812 38.1699 32.6265 37.9355 32.3921C37.7012 32.1577 37.5156 31.8843 37.3789 31.5718C37.2471 31.2593 37.1812 30.9248 37.1812 30.5684V24.9287C37.1812 24.5723 37.2471 24.2378 37.3789 23.9253C37.5156 23.6128 37.7012 23.3394 37.9355 23.105C38.1699 22.8706 38.4434 22.6875 38.7559 22.5557C39.0732 22.4189 39.4102 22.3506 39.7666 22.3506H40.5137C40.8701 22.3506 41.2046 22.4189 41.5171 22.5557C41.8296 22.6875 42.103 22.8706 42.3374 23.105C42.5718 23.3394 42.7549 23.6128 42.8867 23.9253C43.0234 24.2378 43.0918 24.5723 43.0918 24.9287V30.5684ZM42.147 24.9287C42.147 24.6943 42.103 24.4771 42.0151 24.2769C41.9272 24.0718 41.8076 23.8936 41.6562 23.7422C41.5049 23.5908 41.3267 23.4712 41.1216 23.3833C40.9214 23.2954 40.7041 23.2515 40.4697 23.2515H39.8105C39.5762 23.2515 39.3564 23.2954 39.1514 23.3833C38.9512 23.4712 38.7729 23.5908 38.6167 23.7422C38.4653 23.8936 38.3457 24.0718 38.2578 24.2769C38.1699 24.4771 38.126 24.6943 38.126 24.9287V30.5684C38.126 30.8027 38.1699 31.0225 38.2578 31.2275C38.3457 31.4277 38.4653 31.606 38.6167 31.7622C38.7729 31.9136 38.9512 32.0332 39.1514 32.1211C39.3564 32.209 39.5762 32.2529 39.8105 32.2529H40.4697C40.7041 32.2529 40.9214 32.209 41.1216 32.1211C41.3267 32.0332 41.5049 31.9136 41.6562 31.7622C41.8076 31.606 41.9272 31.4277 42.0151 31.2275C42.103 31.0225 42.147 30.8027 42.147 30.5684V24.9287ZM51.1045 30.5684C51.1045 30.9248 51.0312 31.2593 50.8848 31.5718C50.7432 31.8843 50.5503 32.1577 50.3062 32.3921C50.0669 32.6265 49.7861 32.812 49.4639 32.9487C49.1465 33.0806 48.8096 33.1465 48.4531 33.1465H47.6987C47.3423 33.1465 47.0029 33.0806 46.6807 32.9487C46.3633 32.812 46.0825 32.6265 45.8384 32.3921C45.5991 32.1577 45.4062 31.8843 45.2598 31.5718C45.1182 31.2593 45.0474 30.9248 45.0474 30.5684V30.1509L45.9922 29.9971V30.5684C45.9922 30.8027 46.0386 31.0225 46.1313 31.2275C46.229 31.4277 46.3584 31.606 46.5195 31.7622C46.6807 31.9136 46.8662 32.0332 47.0762 32.1211C47.291 32.209 47.5156 32.2529 47.75 32.2529H48.4092C48.6436 32.2529 48.8657 32.209 49.0757 32.1211C49.2856 32.0332 49.4712 31.9136 49.6323 31.7622C49.7935 31.606 49.9204 31.4277 50.0132 31.2275C50.1108 31.0225 50.1597 30.8027 50.1597 30.5684V30.2534C50.1597 29.8921 50.0889 29.5918 49.9473 29.3525C49.8057 29.1133 49.6177 28.9106 49.3833 28.7446C49.1489 28.5737 48.8828 28.4297 48.585 28.3125C48.292 28.1953 47.9893 28.0781 47.6768 27.9609C47.3643 27.8438 47.0591 27.7144 46.7612 27.5728C46.4683 27.4312 46.2046 27.2554 45.9702 27.0454C45.7358 26.8306 45.5479 26.5693 45.4062 26.2617C45.2646 25.9541 45.1938 25.5757 45.1938 25.1265V24.9287C45.1938 24.5723 45.2598 24.2378 45.3916 23.9253C45.5283 23.6128 45.7139 23.3394 45.9482 23.105C46.1826 22.8706 46.4561 22.6875 46.7686 22.5557C47.0859 22.4189 47.4229 22.3506 47.7793 22.3506H48.4531C48.8096 22.3506 49.144 22.4189 49.4565 22.5557C49.769 22.6875 50.0425 22.8706 50.2769 23.105C50.5112 23.3394 50.6943 23.6128 50.8262 23.9253C50.9629 24.2378 51.0312 24.5723 51.0312 24.9287V25.1997L50.0864 25.3535V24.9287C50.0864 24.6943 50.0425 24.4771 49.9546 24.2769C49.8667 24.0718 49.7471 23.8936 49.5957 23.7422C49.4443 23.5908 49.2661 23.4712 49.061 23.3833C48.8608 23.2954 48.6436 23.2515 48.4092 23.2515H47.8232C47.5889 23.2515 47.3691 23.2954 47.1641 23.3833C46.9639 23.4712 46.7856 23.5908 46.6294 23.7422C46.478 23.8936 46.3584 24.0718 46.2705 24.2769C46.1826 24.4771 46.1387 24.6943 46.1387 24.9287V25.1265C46.1387 25.4634 46.2095 25.7466 46.3511 25.9761C46.4927 26.2056 46.6807 26.4033 46.915 26.5693C47.1494 26.7305 47.4131 26.8721 47.7061 26.9941C48.0039 27.1113 48.3091 27.2334 48.6216 27.3604C48.9341 27.4824 49.2368 27.6191 49.5298 27.7705C49.8276 27.917 50.0938 28.1001 50.3281 28.3198C50.5625 28.5347 50.7505 28.7983 50.8921 29.1108C51.0337 29.4233 51.1045 29.8042 51.1045 30.2534V30.5684ZM58.1064 33V28.2026H54.0854V33H53.1406V22.4971H54.0854V27.3018H58.1064V22.4971H59.0513V33H58.1064ZM64.2222 27.9756V33H63.2773V27.9902L60.5601 22.4971H61.5781L63.7388 26.8623L65.8994 22.4971H66.9175L64.2222 27.9756ZM73.8315 33L69.4517 25.3535L69.3638 24.8994V33H68.4189V22.4971H68.9097L73.2896 30.1509L73.3848 30.5977V22.4971H74.3296V33H73.8315ZM80.6797 30.5537H77.3545L76.666 33H75.6846L78.7607 22.4971H79.2588L82.3496 33H81.3755L80.6797 30.5537ZM77.6108 29.6528H80.4307L79.0464 24.8115L79.0171 24.4233L78.9878 24.8115L77.6108 29.6528Z" fill="white"/>
<path d="M80 57.5C81.933 57.5 83.5 55.933 83.5 54C83.5 52.067 81.933 50.5 80 50.5V57.5ZM80 50.5H18V57.5H80V50.5Z" fill="white"/>
<path d="M12 54L18 50.5359L18 57.4641L12 54Z" fill="white"/>
<rect x="4" y="4" width="89" height="69" rx="15" stroke="white" stroke-width="8"/>
</svg>
